<svg width="27" height="42" viewBox="0 0 27 42" fill="none" xmlns="http://www.w3.org/2000/svg">
<path d="M6.0068 1.1691C6.10529 1.16869 6.10529 1.16869 6.20577 1.16828C6.42526 1.16749 6.64475 1.16735 6.86424 1.16722C7.02184 1.16679 7.17944 1.16634 7.33704 1.16585C7.76487 1.16466 8.1927 1.16407 8.62053 1.16366C8.888 1.1634 9.15546 1.16302 9.42293 1.16262C10.2603 1.16138 11.0977 1.1605 11.9351 1.16015C12.9007 1.15974 13.8664 1.15814 14.832 1.15551C15.5791 1.15354 16.3262 1.15263 17.0732 1.15251C17.5191 1.15241 17.965 1.15188 18.4109 1.15025C18.8305 1.14875 19.2502 1.14856 19.6698 1.14935C19.8234 1.14942 19.977 1.14903 20.1306 1.14813C21.0128 1.14326 21.7715 1.15314 22.5596 1.60232C22.8793 1.94474 23.1108 2.36966 23.1442 2.84104C23.1373 2.98005 23.1291 3.119 23.12 3.25788C23.0516 4.41874 23.5372 5.23997 24.1442 6.18677C24.7271 7.09726 25.1668 8.02605 25.1697 9.12141C25.1701 9.21802 25.1706 9.31463 25.1711 9.41417C25.1711 9.51976 25.1712 9.62535 25.1712 9.73414C25.1718 9.90304 25.1718 9.90304 25.1724 10.0754C25.1735 10.3877 25.1741 10.7 25.1745 11.0123C25.175 11.3492 25.1761 11.6862 25.1771 12.0231C25.1794 12.8366 25.1807 13.6502 25.1819 14.4637C25.1822 14.6935 25.1826 14.9234 25.183 15.1532C25.1853 16.581 25.1873 18.0088 25.1885 19.4366C25.1888 19.7672 25.189 20.0977 25.1893 20.4283C25.1894 20.5104 25.1894 20.5926 25.1895 20.6772C25.1907 22.0081 25.1937 23.339 25.1976 24.6699C25.2015 26.0368 25.2037 27.4037 25.2041 28.7706C25.2045 29.5379 25.2055 30.3051 25.2086 31.0724C25.2112 31.7258 25.2122 32.3792 25.2111 33.0326C25.2107 33.3658 25.2109 33.699 25.2132 34.0321C25.2157 34.3939 25.2145 34.7556 25.2131 35.1173C25.2143 35.2219 25.2156 35.3265 25.2169 35.4342C25.2096 36.1722 25.0597 36.8034 24.5318 37.3531C24.2993 37.5601 24.0664 37.7191 23.7913 37.8683C23.3764 38.1397 23.1579 38.5711 22.9051 38.983C21.9923 40.4614 21.9923 40.4614 21.2349 40.7614C21.1702 40.7884 21.1054 40.8153 21.0387 40.8431C20.5952 40.9808 20.1589 41.0115 19.6963 41.0128C19.5824 41.0133 19.4684 41.0139 19.3511 41.0144C19.226 41.0145 19.101 41.0146 18.9759 41.0147C18.8433 41.0151 18.7106 41.0156 18.578 41.0161C18.2185 41.0173 17.859 41.0178 17.4995 41.0182C17.2744 41.0185 17.0494 41.0189 16.8244 41.0193C16.119 41.0205 15.4136 41.0214 14.7083 41.0218C13.8964 41.0222 13.0846 41.0238 12.2728 41.0264C11.6437 41.0284 11.0146 41.0293 10.3855 41.0294C10.0106 41.0295 9.6356 41.03 9.26062 41.0317C8.90739 41.0332 8.55418 41.0333 8.20094 41.0326C8.07213 41.0325 7.94331 41.0329 7.8145 41.0338C6.89801 41.0398 5.79283 41.0381 5.04095 40.4386C4.57826 39.9497 4.22171 39.3586 3.86711 38.7905C3.52506 38.2525 3.23867 37.9008 2.68284 37.5778C2.1768 37.2576 1.89975 36.8407 1.7509 36.2728C1.72347 35.9037 1.72565 35.5353 1.72688 35.1653C1.72652 35.0528 1.72617 34.9402 1.72581 34.8243C1.72502 34.5125 1.72506 34.2008 1.72546 33.889C1.72568 33.5525 1.72485 33.216 1.72416 32.8795C1.72299 32.2203 1.72282 31.5612 1.72304 30.9021C1.7232 30.3661 1.72304 29.8301 1.72265 29.2941C1.72259 29.2178 1.72254 29.1415 1.72248 29.0629C1.72237 28.9078 1.72226 28.7528 1.72215 28.5977C1.72114 27.1436 1.72134 25.6895 1.72191 24.2354C1.72238 22.9064 1.72135 21.5774 1.71959 20.2484C1.71781 18.8829 1.71705 17.5175 1.71739 16.152C1.71757 15.3857 1.71734 14.6195 1.71604 13.8532C1.71494 13.2006 1.71481 12.548 1.71593 11.8954C1.71647 11.5628 1.71657 11.2301 1.71546 10.8975C1.71427 10.536 1.71525 10.1746 1.71641 9.81311C1.71574 9.70913 1.71506 9.60515 1.71436 9.49801C1.72169 8.41467 1.98886 7.52337 2.5169 6.57959C2.55936 6.50108 2.60183 6.42256 2.64558 6.34166C2.81878 6.02417 2.98963 5.71122 3.19477 5.41249C3.59571 4.8218 3.66897 4.369 3.65726 3.66482C3.65375 2.90331 3.6557 2.35051 4.18136 1.75005C4.77326 1.24954 5.23894 1.17086 6.0068 1.1691ZM5.34476 2.81823C5.20639 3.09124 5.24405 3.34465 5.24685 3.64777C5.24768 3.76426 5.24851 3.88074 5.24937 4.00076C5.25044 4.09052 5.2515 4.18029 5.25261 4.27277C5.31551 4.27307 5.37842 4.27337 5.44324 4.27368C6.97291 4.28106 8.50257 4.28943 10.0322 4.29891C10.7719 4.30347 11.5117 4.30769 12.2514 4.31113C12.896 4.31412 13.5407 4.31774 14.1853 4.32212C14.5267 4.32442 14.8682 4.3264 15.2096 4.32762C15.5905 4.329 15.9713 4.33179 16.3521 4.3347C16.4657 4.33489 16.5793 4.33509 16.6964 4.33529C16.8517 4.33681 16.8517 4.33681 17.01 4.33837C17.1002 4.33887 17.1903 4.33937 17.2832 4.33989C17.5086 4.36368 17.5086 4.36368 17.785 4.5455C17.8138 4.86368 17.8138 4.86368 17.785 5.18186C17.6007 5.36368 17.6007 5.36368 17.3859 5.38138C17.2954 5.37905 17.2048 5.37672 17.1115 5.37432C17.0076 5.37218 16.9038 5.37004 16.7968 5.36784C16.6251 5.36299 16.6251 5.36299 16.4498 5.35804C16.2653 5.35407 16.0808 5.35009 15.8963 5.34626C15.7651 5.3435 15.634 5.34063 15.5028 5.33764C15.0198 5.32673 14.5368 5.31941 14.0537 5.31427C13.9836 5.31353 13.9134 5.31278 13.8412 5.31201C13.5515 5.309 13.2619 5.30611 12.9723 5.30331C12.1513 5.29524 11.3307 5.28366 10.5099 5.26114C9.85785 5.24328 9.20617 5.23327 8.55383 5.23224C8.20878 5.23142 7.8648 5.2268 7.52003 5.21263C6.0732 5.11076 6.0732 5.11076 4.82145 5.67824C4.42365 6.18136 3.7782 7.05612 3.7782 7.72732C4.50803 7.75732 5.23786 7.78732 5.98981 7.81823C6.08196 8.45459 6.08196 8.45459 5.98394 8.62782C5.73539 8.76642 5.53929 8.76698 5.25441 8.77384C5.1472 8.77706 5.03999 8.78028 4.92954 8.7836C4.81758 8.78566 4.70563 8.78771 4.59028 8.78982C4.47725 8.79292 4.36422 8.79603 4.24777 8.79923C3.96839 8.80674 3.68904 8.81302 3.4096 8.81823C3.31874 9.08713 3.30565 9.26167 3.30508 9.54207C3.30467 9.63575 3.30426 9.72944 3.30384 9.82596C3.30386 9.9292 3.30387 10.0324 3.30389 10.1388C3.30355 10.2482 3.30321 10.3577 3.30286 10.4704C3.30202 10.7747 3.3016 11.079 3.30135 11.3832C3.30099 11.7112 3.30011 12.0391 3.29931 12.3671C3.29749 13.1592 3.29656 13.9514 3.29574 14.7436C3.29533 15.1164 3.29484 15.4893 3.29436 15.8622C3.29279 17.1014 3.29145 18.3406 3.29079 19.5798C3.29061 19.9014 3.29043 20.2229 3.29025 20.5445C3.29021 20.6245 3.29016 20.7044 3.29012 20.7867C3.28935 22.0824 3.28702 23.378 3.28402 24.6736C3.28098 26.0032 3.27932 27.3329 3.27902 28.6625C3.27882 29.4093 3.27801 30.156 3.27566 30.9028C3.27367 31.5386 3.27292 32.1744 3.27382 32.8101C3.27424 33.1346 3.27406 33.4591 3.27227 33.7836C3.27036 34.1351 3.27129 34.4866 3.27251 34.8382C3.2715 34.941 3.27048 35.0439 3.26944 35.1498C3.27153 35.7012 3.27153 35.7012 3.49304 36.1977C3.79336 36.456 3.96075 36.4656 4.35198 36.4635C4.49453 36.463 4.49453 36.463 4.63995 36.4626C4.73949 36.4618 4.83904 36.4611 4.9416 36.4603C5.04186 36.4599 5.14211 36.4595 5.24541 36.459C5.49354 36.458 5.74167 36.4565 5.98981 36.4546C5.99327 36.3775 5.99327 36.3775 5.9968 36.2989C6.00748 36.0667 6.01879 35.8345 6.03012 35.6023C6.03375 35.5215 6.03737 35.4406 6.0411 35.3573C6.04496 35.2799 6.04882 35.2026 6.0528 35.1229C6.05618 35.0515 6.05956 34.9801 6.06304 34.9065C6.08196 34.7273 6.08196 34.7273 6.17411 34.5455C6.38909 34.5416 6.60417 34.5418 6.81916 34.5455C6.96513 34.6895 6.93156 34.8434 6.94047 35.043C6.94433 35.1248 6.94819 35.2065 6.95216 35.2907C6.95579 35.3767 6.95941 35.4626 6.96314 35.5512C6.96712 35.6375 6.9711 35.7238 6.9752 35.8127C6.98501 36.0267 6.99428 36.2406 7.00346 36.4546C7.30755 36.4546 7.61165 36.4546 7.92496 36.4546C7.98578 36.2146 8.0466 35.9746 8.10926 35.7273C8.32424 35.7235 8.53933 35.7236 8.75431 35.7273C8.93568 35.9062 8.90751 36.2135 8.93861 36.4546C9.04421 36.4549 9.14981 36.4553 9.2586 36.4556C10.2526 36.4589 11.2465 36.4642 12.2404 36.4713C12.7514 36.4749 13.2624 36.4778 13.7735 36.4792C14.2664 36.4806 14.7593 36.4837 15.2522 36.4881C15.4405 36.4894 15.6288 36.4901 15.8171 36.4902C16.0804 36.4904 16.3436 36.4929 16.6068 36.4959C16.6851 36.4954 16.7634 36.495 16.844 36.4945C17.3689 36.5037 17.3689 36.5037 17.6063 36.7123C17.7282 36.9894 17.6844 37.169 17.6007 37.4546C17.3632 37.5717 17.1915 37.5582 16.9255 37.5599C16.7693 37.5612 16.7693 37.5612 16.6099 37.5626C16.4951 37.5631 16.3803 37.5636 16.262 37.5642C16.1415 37.5651 16.0211 37.566 15.8969 37.5669C15.5661 37.5694 15.2352 37.5713 14.9043 37.5731C14.5587 37.5751 14.2131 37.5776 13.8675 37.58C13.2129 37.5845 12.5582 37.5886 11.9035 37.5925C11.1583 37.597 10.4131 37.602 9.66787 37.6071C8.13469 37.6174 6.6015 37.6271 5.06831 37.6364C5.16917 37.7954 5.27039 37.9543 5.37175 38.113C5.42808 38.2014 5.48441 38.2899 5.54244 38.381C5.91746 38.9541 5.91746 38.9541 6.45056 39.3637C6.63355 39.3734 6.81688 39.3772 7.00013 39.3783C7.11731 39.3792 7.23449 39.3801 7.35521 39.3811C7.48582 39.3816 7.61642 39.3821 7.74703 39.3827C7.884 39.3835 8.02098 39.3844 8.15796 39.3854C8.60859 39.3882 9.05923 39.39 9.50987 39.3917C9.62486 39.3922 9.62486 39.3922 9.74217 39.3926C10.4651 39.3954 11.1881 39.3979 11.9111 39.3994C12.8358 39.4014 13.7606 39.4052 14.6853 39.4115C15.3355 39.4158 15.9857 39.418 16.6359 39.4187C17.0242 39.4191 17.4125 39.4205 17.8008 39.4241C18.1664 39.4275 18.5319 39.4282 18.8974 39.427C19.0314 39.427 19.1653 39.428 19.2992 39.4299C20.1329 39.4599 20.1329 39.4599 20.8519 39.1038C21.0912 38.8557 21.286 38.583 21.4653 38.2898C21.5463 38.1596 21.5463 38.1596 21.6291 38.0267C21.755 37.8448 21.755 37.8448 21.7475 37.7273C21.6675 37.726 21.5875 37.7247 21.5051 37.7233C21.2086 37.7178 20.9123 37.711 20.6159 37.7035C20.4875 37.7004 20.3592 37.6979 20.2308 37.6958C20.0464 37.6928 19.8621 37.6879 19.6777 37.6829C19.5667 37.6805 19.4557 37.6782 19.3414 37.6757C19.2535 37.6627 19.1657 37.6498 19.0751 37.6364C18.8908 37.3637 18.8908 37.3637 18.9139 37.0853C18.983 36.8182 18.983 36.8182 19.1673 36.6364C19.4238 36.6174 19.6719 36.609 19.9286 36.6084C20.0846 36.6061 20.2407 36.6038 20.3967 36.6014C20.6426 36.5988 20.8885 36.5966 21.1344 36.5949C21.3718 36.5929 21.6091 36.5894 21.8465 36.5856C21.9192 36.5856 21.9919 36.5856 22.0667 36.5856C22.5483 36.5772 22.8895 36.5033 23.314 36.2728C23.5732 35.9992 23.625 35.817 23.6248 35.4463C23.6254 35.3523 23.626 35.2584 23.6266 35.1616C23.6255 35.0069 23.6255 35.0069 23.6244 34.8491C23.6247 34.7395 23.625 34.6299 23.6253 34.5169C23.6258 34.2125 23.6251 33.9081 23.6239 33.6036C23.6229 33.2754 23.6235 32.9471 23.6239 32.6189C23.6244 31.9758 23.6235 31.3327 23.622 30.6897C23.6204 29.9412 23.6203 29.1927 23.6202 28.4442C23.6201 27.1091 23.6186 25.7739 23.6164 24.4387C23.6143 23.1423 23.613 21.8459 23.6126 20.5495C23.6126 20.4297 23.6126 20.4297 23.6126 20.3075C23.6125 20.1467 23.6125 19.9858 23.6124 19.8249C23.6124 19.7059 23.6124 19.7059 23.6124 19.5845C23.6124 19.5053 23.6123 19.4262 23.6123 19.3447C23.612 18.1103 23.6109 16.8759 23.6098 15.6415C23.6094 15.1937 23.6091 14.7459 23.6088 14.2981C23.6084 13.5879 23.6077 12.8777 23.6063 12.1675C23.6057 11.8429 23.6053 11.5183 23.6052 11.1936C23.6051 10.8422 23.6043 10.4908 23.6034 10.1394C23.6035 10.0361 23.6036 9.93282 23.6037 9.82638C23.6033 9.73264 23.603 9.63891 23.6026 9.54233C23.6025 9.46116 23.6024 9.37999 23.6023 9.29637C23.5987 9.07565 23.5987 9.07565 23.4983 8.81823C23.3933 8.8179 23.3933 8.8179 23.2861 8.81757C21.5834 8.8122 19.8807 8.80533 18.1781 8.7968C17.3547 8.79271 16.5313 8.78913 15.7078 8.78673C14.9903 8.78465 14.2728 8.78161 13.5553 8.77744C13.1752 8.77526 12.7952 8.77356 12.4151 8.77299C12.0575 8.77244 11.7 8.77063 11.3425 8.76784C11.2111 8.76704 11.0797 8.7667 10.9483 8.76686C10.7693 8.76701 10.5902 8.76534 10.4111 8.76357C10.3108 8.76315 10.2105 8.76273 10.1071 8.7623C9.86011 8.72732 9.86011 8.72732 9.68601 8.60645C9.58366 8.45459 9.58366 8.45459 9.6067 8.1705C9.67581 7.90914 9.67581 7.90914 9.76796 7.81823C9.94052 7.80834 10.1135 7.80487 10.2863 7.80384C10.4551 7.80251 10.4551 7.80251 10.6274 7.80115C10.7533 7.80061 10.8791 7.80008 11.005 7.79956C11.1366 7.79869 11.2683 7.79778 11.4 7.79683C11.7585 7.79437 12.1169 7.79246 12.4754 7.79065C12.8497 7.78867 13.2239 7.78618 13.5982 7.78374C14.3074 7.77919 15.0165 7.77511 15.7257 7.77119C16.5329 7.76671 17.34 7.76171 18.1472 7.75668C19.808 7.74632 21.4689 7.73661 23.1297 7.72732C23.0864 7.6421 23.043 7.55688 22.9983 7.46907C22.9403 7.35498 22.8823 7.24089 22.8244 7.1268C22.7959 7.0709 22.7674 7.015 22.7381 6.95741C22.6006 6.68663 22.4661 6.41541 22.3362 6.14096C22.1978 5.85586 22.0793 5.66562 21.8396 5.45459C21.3662 5.32635 20.9135 5.33849 20.4286 5.358C20.1775 5.36228 19.9264 5.3641 19.6752 5.36617C19.5091 5.37143 19.5091 5.37143 19.3396 5.3768C19.0751 5.36368 19.0751 5.36368 18.8908 5.18186C18.8399 4.70923 18.8399 4.70923 18.9964 4.48555C19.238 4.31322 19.4221 4.32429 19.7184 4.31716C19.8256 4.31394 19.9328 4.31072 20.0432 4.3074C20.1552 4.30535 20.2672 4.30329 20.3825 4.30118C20.4955 4.29808 20.6086 4.29497 20.725 4.29177C21.0044 4.28426 21.2838 4.27798 21.5632 4.27277C21.5657 4.06445 21.5675 3.85611 21.5689 3.64777C21.5705 3.47375 21.5705 3.47375 21.5722 3.29621C21.5845 3.01035 21.5845 3.01035 21.471 2.81823C16.1494 2.81823 10.8277 2.81823 5.34476 2.81823Z" fill="currentColor"/>
<path d="M21.7015 12.79C21.8612 12.8041 21.8612 12.8041 22.0241 12.8184C22.2492 13.1516 22.2344 13.4003 22.2322 13.7854C22.2325 13.856 22.2328 13.9265 22.2332 13.9992C22.234 14.2325 22.2335 14.4658 22.2328 14.6991C22.233 14.8611 22.2331 15.0232 22.2334 15.1852C22.2336 15.5248 22.2332 15.8644 22.2324 16.204C22.2313 16.6396 22.2319 17.0753 22.233 17.5109C22.2337 17.8455 22.2335 18.18 22.233 18.5146C22.2329 18.6752 22.233 18.8359 22.2335 18.9965C22.2339 19.2209 22.2332 19.4453 22.2322 19.6697C22.2326 19.7363 22.2329 19.8028 22.2333 19.8715C22.2305 20.2074 22.2182 20.3493 22.0241 20.6366C21.7015 20.665 21.7015 20.665 21.379 20.6366C21.1482 20.409 21.1723 20.2718 21.1697 19.9611C21.1701 19.8924 21.1705 19.8236 21.1709 19.7528C21.1704 19.6441 21.1704 19.6441 21.1699 19.5332C21.1691 19.2931 21.1696 19.0529 21.1702 18.8128C21.1701 18.6463 21.1699 18.4799 21.1697 18.3135C21.1694 17.9644 21.1698 17.6153 21.1707 17.2662C21.1717 16.818 21.1711 16.3698 21.17 15.9216C21.1693 15.5779 21.1696 15.2341 21.17 14.8903C21.1702 14.7251 21.17 14.5598 21.1696 14.3945C21.1691 14.1638 21.1698 13.9331 21.1709 13.7023C21.1705 13.6336 21.1701 13.5648 21.1697 13.4939C21.1737 13.0194 21.1786 12.8361 21.7015 12.79Z" fill="currentColor"/>
<path d="M22.0237 10.4542C22.2797 10.7068 22.2356 10.8695 22.2368 11.2213C22.2383 11.3262 22.2399 11.4311 22.2415 11.5391C22.208 11.8179 22.208 11.8179 22.0856 11.9898C21.8484 12.1451 21.6552 12.1196 21.3786 12.0906C21.1151 11.8307 21.1636 11.6401 21.1598 11.2781C21.1572 11.1648 21.1545 11.0515 21.1519 10.9347C21.1943 10.6361 21.1943 10.6361 21.3657 10.4585C21.6252 10.3333 21.754 10.3632 22.0237 10.4542Z" fill="currentColor"/>
<path d="M7.72908 7.70437C7.81057 7.70202 7.89206 7.69968 7.97602 7.69727C8.20135 7.7271 8.20135 7.7271 8.36981 7.84464C8.4778 7.99982 8.4778 7.99982 8.46628 8.32369C8.38565 8.63619 8.38565 8.63619 8.1092 8.818C7.74995 8.85667 7.5437 8.86705 7.23377 8.67596C7.09555 8.45437 7.09555 8.45437 7.11283 8.11914C7.22247 7.67816 7.2935 7.71184 7.72908 7.70437Z" fill="currentColor"/>
</svg>
