<svg width="25" height="42" viewBox="0 0 25 42" fill="none" xmlns="http://www.w3.org/2000/svg">
<path d="M9.31009 1.05347C9.384 1.05306 9.4579 1.05265 9.53404 1.05223C9.77845 1.05104 10.0229 1.05048 10.2673 1.05002C10.4374 1.04955 10.6076 1.04908 10.7777 1.04861C11.1346 1.04775 11.4914 1.04727 11.8483 1.04698C12.3047 1.04653 12.7611 1.04456 13.2174 1.04222C13.569 1.04069 13.9206 1.04027 14.2722 1.04014C14.4404 1.0399 14.6086 1.03924 14.7768 1.03816C15.0126 1.03675 15.2483 1.03692 15.4841 1.03745C15.5531 1.03669 15.622 1.03594 15.6931 1.03516C16.2406 1.039 16.664 1.16014 17.1364 1.45121C17.6442 1.97522 17.683 2.46718 17.6757 3.1713C17.6716 3.32738 17.6716 3.32738 17.6674 3.48661C17.666 3.5932 17.6645 3.69979 17.663 3.80961C17.6591 4.07114 17.6538 4.33256 17.647 4.59403C17.7442 4.59274 17.8414 4.59145 17.9415 4.59012C18.3054 4.58564 18.6693 4.58283 19.0333 4.58051C19.1902 4.57928 19.347 4.57761 19.5039 4.57547C19.7307 4.57245 19.9574 4.57108 20.1842 4.57C20.2532 4.56873 20.3223 4.56746 20.3934 4.56615C21.2964 4.5659 21.9539 4.84544 22.6051 5.46305C23.3018 6.20445 23.3318 7.06496 23.3258 8.03396C23.3261 8.16599 23.3267 8.29802 23.3273 8.43004C23.3287 8.79122 23.328 9.15237 23.327 9.51354C23.3263 9.90369 23.3274 10.2938 23.3283 10.684C23.3297 11.4476 23.3294 12.2113 23.3285 12.975C23.3277 13.5958 23.3276 14.2166 23.328 14.8374C23.3281 14.9258 23.3281 15.0142 23.3282 15.1053C23.3283 15.285 23.3284 15.4646 23.3285 15.6442C23.3294 17.328 23.3283 19.0117 23.3266 20.6955C23.3251 22.1395 23.3254 23.5835 23.3269 25.0275C23.3286 26.7052 23.3293 28.3829 23.3283 30.0605C23.3282 30.2395 23.3281 30.4185 23.328 30.5975C23.3279 30.7296 23.3279 30.7296 23.3279 30.8644C23.3276 31.4842 23.328 32.104 23.3288 32.7239C23.3297 33.4796 23.3295 34.2352 23.3277 34.9909C23.3269 35.3763 23.3265 35.7617 23.3276 36.1471C23.3286 36.5002 23.3281 36.8534 23.3263 37.2065C23.326 37.3339 23.3261 37.4613 23.3269 37.5887C23.3327 38.5931 23.2162 39.4458 22.5011 40.1946C21.7874 40.7918 21.0455 40.9467 20.1404 40.9448C20.0717 40.945 20.0031 40.9452 19.9324 40.9454C19.7031 40.9459 19.4737 40.9459 19.2444 40.9458C19.0797 40.946 18.915 40.9463 18.7503 40.9466C18.3033 40.9474 17.8563 40.9475 17.4093 40.9476C17.1299 40.9477 16.8506 40.9478 16.5712 40.948C15.5962 40.9488 14.6211 40.9491 13.6461 40.9491C12.7378 40.949 11.8295 40.9499 10.9212 40.9512C10.1409 40.9523 9.36062 40.9527 8.58032 40.9526C8.11449 40.9526 7.64867 40.9529 7.18285 40.9537C6.74462 40.9545 6.3064 40.9545 5.86817 40.9539C5.70762 40.9538 5.54707 40.954 5.38651 40.9545C5.16676 40.9552 4.94704 40.9548 4.72729 40.9542C4.63277 40.9548 4.63277 40.9548 4.53635 40.9554C3.65962 40.9499 2.95092 40.7154 2.28371 40.1312C1.54238 39.3566 1.50429 38.422 1.5102 37.4026C1.50976 37.2706 1.50919 37.1385 1.50848 37.0065C1.50696 36.6456 1.50747 36.2848 1.50833 35.924C1.5089 35.5341 1.50759 35.1442 1.50653 34.7543C1.50477 33.9912 1.50477 33.2281 1.50544 32.465C1.50595 31.8446 1.50586 31.2243 1.50533 30.6039C1.50526 30.5155 1.50519 30.4271 1.50511 30.3361C1.50496 30.1565 1.50481 29.9769 1.50466 29.7974C1.5033 28.1145 1.50401 26.4317 1.50539 24.7489C1.50659 23.2102 1.5054 21.6716 1.50304 20.1329C1.50064 18.5518 1.49974 16.9708 1.50052 15.3897C1.5006 15.2108 1.50069 15.0319 1.50076 14.853C1.5008 14.7649 1.50084 14.6769 1.50088 14.5862C1.50106 13.9669 1.50026 13.3475 1.49907 12.7282C1.49764 11.973 1.49765 11.2178 1.49951 10.4626C1.50041 10.0776 1.50068 9.69252 1.49915 9.30745C1.49778 8.9545 1.49831 8.6016 1.50032 8.24865C1.50071 8.12142 1.50043 7.99418 1.49938 7.86696C1.49212 6.92261 1.61244 6.10379 2.26201 5.37845C2.96757 4.73443 3.69138 4.58054 4.61246 4.58602C4.72312 4.58619 4.72312 4.58619 4.83601 4.58637C5.07074 4.58683 5.30547 4.58786 5.5402 4.5889C5.69971 4.58931 5.85923 4.58969 6.01874 4.59002C6.409 4.59093 6.79925 4.59234 7.1895 4.59403C7.18693 4.49482 7.18693 4.49482 7.18432 4.3936C7.17748 4.09128 7.17326 3.78898 7.16908 3.48661C7.16634 3.38256 7.1636 3.27851 7.16078 3.1713C7.15481 2.59608 7.15233 2.109 7.5163 1.64091C7.69757 1.47204 7.69757 1.47204 7.88395 1.35892C7.94545 1.32012 8.00695 1.28131 8.07032 1.24132C8.46985 1.03722 8.87004 1.05405 9.31009 1.05347ZM8.41499 2.54325C8.41499 3.22001 8.41499 3.89676 8.41499 4.59403C11.0571 4.59403 13.6993 4.59403 16.4215 4.59403C16.4215 3.91727 16.4215 3.24051 16.4215 2.54325C16.0485 2.26232 15.8302 2.26203 15.3878 2.26531C15.3166 2.26488 15.2454 2.26445 15.172 2.26401C14.9366 2.26292 14.7012 2.26364 14.4658 2.26447C14.3022 2.26431 14.1386 2.26407 13.975 2.26376C13.6322 2.26339 13.2894 2.26392 12.9465 2.26507C12.5069 2.26647 12.0674 2.26567 11.6278 2.26419C11.29 2.2633 10.9522 2.26359 10.6143 2.26422C10.4523 2.26439 10.2902 2.26419 10.1281 2.26361C9.9016 2.26299 9.67517 2.26394 9.44868 2.26531C9.38161 2.26481 9.31455 2.26432 9.24545 2.2638C8.85148 2.26822 8.74513 2.29464 8.41499 2.54325ZM3.0739 6.3577C2.82931 6.73551 2.75725 6.96677 2.75649 7.42524C2.75618 7.47902 2.75587 7.5328 2.75555 7.58821C2.7547 7.7692 2.75502 7.95016 2.75534 8.13115C2.75498 8.26191 2.75454 8.39268 2.75404 8.52344C2.75288 8.88339 2.75275 9.24333 2.75278 9.60328C2.75265 9.99125 2.75158 10.3792 2.75064 10.7672C2.74878 11.6158 2.74813 12.4644 2.74772 13.313C2.74745 13.8428 2.74692 14.3725 2.74633 14.9023C2.74473 16.3686 2.74339 17.835 2.74315 19.3014C2.74314 19.3953 2.74312 19.4891 2.74311 19.5858C2.74308 19.7761 2.74305 19.9664 2.74302 20.1567C2.743 20.2512 2.74299 20.3457 2.74297 20.443C2.74296 20.5376 2.74294 20.6322 2.74293 20.7296C2.74264 22.2624 2.74043 23.7953 2.73737 25.3281C2.73427 26.9013 2.73268 28.4746 2.73266 30.0479C2.73261 30.9314 2.73191 31.8149 2.72955 32.6984C2.72755 33.4507 2.72695 34.203 2.72818 34.9553C2.72877 35.3391 2.7287 35.723 2.72684 36.1068C2.72516 36.4583 2.72537 36.8097 2.72708 37.1612C2.72736 37.2883 2.72696 37.4154 2.72579 37.5425C2.71291 38.4066 2.71291 38.4066 3.06972 39.1752C3.46174 39.5723 3.92646 39.7122 4.47269 39.7151C4.53707 39.7151 4.60146 39.715 4.66779 39.7149C4.73632 39.7152 4.80485 39.7154 4.87546 39.7157C5.10595 39.7164 5.33643 39.7165 5.56692 39.7166C5.73184 39.717 5.89676 39.7174 6.06168 39.7179C6.51036 39.7189 6.95904 39.7195 7.40773 39.7198C7.68797 39.7201 7.96821 39.7204 8.24845 39.7208C9.12504 39.7219 10.0016 39.7227 10.8782 39.723C11.8905 39.7234 12.9028 39.7248 13.9151 39.7272C14.6973 39.729 15.4794 39.7298 16.2616 39.7299C16.7289 39.73 17.1962 39.7305 17.6635 39.7319C18.1031 39.7333 18.5427 39.7335 18.9823 39.7327C19.1436 39.7327 19.3049 39.733 19.4662 39.7338C19.6866 39.7349 19.9069 39.7344 20.1272 39.7336C20.2227 39.7345 20.2227 39.7345 20.3201 39.7356C20.8446 39.7308 21.2238 39.6146 21.6299 39.2625C21.9645 38.8705 22.0894 38.6144 22.0901 38.0926C22.0905 38.0387 22.0909 37.9848 22.0913 37.9293C22.0924 37.7485 22.0917 37.5677 22.091 37.3869C22.0914 37.2561 22.0919 37.1252 22.0925 36.9944C22.0939 36.6346 22.0937 36.2749 22.0932 35.9151C22.093 35.5272 22.0942 35.1393 22.0952 34.7514C22.0969 33.9913 22.0973 33.2312 22.0971 32.4711C22.097 31.8534 22.0973 31.2356 22.0979 30.6178C22.0981 30.44 22.0983 30.2622 22.0985 30.0844C22.0985 29.9958 22.0986 29.9073 22.0987 29.8161C22.1003 28.1415 22.1002 26.4669 22.0996 24.7922C22.0992 23.2599 22.1009 21.7277 22.1036 20.1954C22.1063 18.6225 22.1076 17.0496 22.1072 15.4767C22.107 14.5935 22.1074 13.7102 22.1095 12.827C22.1112 12.075 22.1115 11.323 22.1099 10.5711C22.1092 10.1874 22.1091 9.80368 22.1108 9.41998C22.1123 9.06865 22.1119 8.71736 22.1101 8.36603C22.1097 8.23901 22.1101 8.11199 22.1112 7.98497C22.1236 7.03206 22.1236 7.03206 21.6503 6.23466C21.1812 5.86728 20.8236 5.81229 20.2448 5.81243C20.1756 5.81212 20.1065 5.81182 20.0353 5.81151C19.8027 5.81061 19.5701 5.81029 19.3376 5.80998C19.1712 5.80947 19.0048 5.80892 18.8384 5.80835C18.3857 5.80692 17.9329 5.80605 17.4802 5.80538C17.1974 5.80495 16.9146 5.80445 16.6317 5.80394C15.747 5.80238 14.8622 5.80121 13.9775 5.80053C12.956 5.79972 11.9345 5.79757 10.913 5.79425C10.1236 5.79178 9.33425 5.79056 8.54486 5.79029C8.07332 5.7901 7.6018 5.78936 7.13026 5.7873C6.68653 5.78539 6.24283 5.78504 5.7991 5.78589C5.6364 5.78593 5.47371 5.78541 5.31102 5.78428C5.08852 5.78283 4.86611 5.78341 4.64361 5.78449C4.54754 5.78314 4.54754 5.78314 4.44952 5.78176C3.89785 5.7882 3.45757 5.95219 3.0739 6.3577Z" fill="currentColor"/>
<path d="M16.1051 13.1026C16.2583 13.1251 16.2583 13.1251 16.4217 13.2071C16.5771 13.5193 16.5487 13.8751 16.4512 14.2027C16.3755 14.3923 16.293 14.5771 16.2069 14.7622C16.1757 14.8318 16.1446 14.9015 16.1125 14.9732C16.0107 15.2002 15.9072 15.4264 15.8038 15.6527C15.6971 15.8897 15.5908 16.127 15.4846 16.3642C15.4125 16.525 15.3404 16.6856 15.268 16.8463C14.9224 17.6147 14.5904 18.3887 14.2617 19.1646C14.1876 19.3393 14.1135 19.514 14.0393 19.6887C13.9763 19.8372 13.9134 19.9858 13.8506 20.1345C13.7028 20.479 13.5512 20.8217 13.3988 21.1641C13.4834 21.1633 13.4834 21.1633 13.5697 21.1625C14.1568 21.157 14.7439 21.1533 15.3311 21.1506C15.5502 21.1495 15.7693 21.1478 15.9884 21.1456C16.3034 21.1426 16.6183 21.1412 16.9332 21.1401C17.0312 21.1388 17.1292 21.1376 17.2301 21.1363C17.3217 21.1362 17.4133 21.1362 17.5076 21.1362C17.588 21.1357 17.6683 21.1351 17.7511 21.1345C18.015 21.1696 18.1684 21.254 18.3825 21.4102C18.5019 21.6501 18.4961 21.7993 18.4642 22.0665C18.3254 22.2673 18.194 22.4326 18.0301 22.6099C17.9859 22.6598 17.9416 22.7096 17.896 22.761C17.7599 22.9135 17.6221 23.0644 17.4838 23.2149C17.423 23.2814 17.423 23.2814 17.361 23.3492C17.2097 23.5146 17.0584 23.6799 16.9063 23.8445C16.6694 24.102 16.4459 24.3667 16.2276 24.6402C15.8966 25.0536 15.5415 25.4384 15.1796 25.8242C14.9147 26.1082 14.6623 26.3972 14.42 26.7013C14.0475 27.1685 13.6425 27.6014 13.2351 28.0378C12.8775 28.4209 12.5367 28.8175 12.1979 29.2173C12.1148 29.3152 12.0317 29.413 11.9486 29.5108C11.9066 29.5603 11.8645 29.6099 11.8212 29.6609C11.545 29.9845 11.2623 30.3009 10.9733 30.6131C10.6847 30.9255 10.4112 31.2441 10.1461 31.577C9.50667 32.3676 9.50667 32.3676 9.05851 32.4486C8.82363 32.4024 8.82363 32.4024 8.62959 32.2742C8.45369 32.0093 8.44919 31.8059 8.49683 31.5001C8.60119 31.1817 8.73664 30.8792 8.87341 30.5737C8.91253 30.4841 8.95164 30.3945 8.99194 30.3022C9.1187 30.0123 9.24689 29.7231 9.3751 29.4339C9.46181 29.2363 9.54841 29.0386 9.6349 28.8409C9.80453 28.4533 9.97461 28.0659 10.1451 27.6787C10.4293 27.0319 10.7076 26.3826 10.9836 25.7323C11.0512 25.5732 11.1188 25.4141 11.1865 25.255C11.2187 25.1793 11.2509 25.1035 11.2841 25.0255C11.3079 24.9694 11.3317 24.9133 11.3563 24.8555C11.2999 24.8554 11.2435 24.8553 11.1854 24.8552C10.5982 24.8536 10.0111 24.8491 9.42403 24.843C9.20491 24.8409 8.98581 24.8398 8.76668 24.8395C8.45169 24.8387 8.13682 24.8354 7.82185 24.8315C7.6749 24.832 7.6749 24.832 7.52498 24.8325C6.76726 24.8192 6.76726 24.8192 6.51259 24.5823C6.37265 24.3634 6.37265 24.3634 6.36084 24.0843C6.4714 23.7353 6.64453 23.5133 6.88838 23.2508C6.9783 23.1499 7.06819 23.049 7.15805 22.948C7.20414 22.897 7.25022 22.846 7.29771 22.7935C7.51145 22.5552 7.71795 22.3108 7.92494 22.0665C8.0067 21.9706 8.08851 21.8748 8.17035 21.7791C8.33278 21.5888 8.49511 21.3985 8.65736 21.208C9.12324 20.6615 9.5911 20.1167 10.0607 19.5734C10.4814 19.0864 10.8994 18.597 11.3168 18.1072C11.5204 17.8682 11.7243 17.6295 11.9282 17.3907C12.0099 17.295 12.0916 17.1993 12.1733 17.1036C12.6635 16.5294 13.1537 15.9552 13.6439 15.3809C13.6844 15.3335 13.7249 15.286 13.7666 15.2372C13.8477 15.1422 13.9288 15.0472 14.0099 14.9523C14.2236 14.702 14.4371 14.4516 14.6501 14.2008C14.6945 14.1486 14.7389 14.0964 14.7846 14.0426C14.8696 13.9427 14.9545 13.8428 15.0393 13.7427C15.1453 13.6182 15.2524 13.4946 15.3596 13.3712C15.4024 13.3205 15.4453 13.2699 15.4895 13.2177C15.6832 13.062 15.8667 13.0912 16.1051 13.1026ZM13.4805 17.4727C13.005 17.988 12.5487 18.5105 12.1092 19.0573C11.9318 19.2731 11.7483 19.4808 11.5606 19.6876C11.3061 19.9679 11.0629 20.254 10.8253 20.5489C10.5877 20.8438 10.3444 21.1299 10.09 21.4102C9.7691 21.7638 9.46763 22.13 9.1683 22.502C8.93724 22.7834 8.69541 23.0539 8.45056 23.3232C8.32459 23.4412 8.32459 23.4412 8.33343 23.543C8.38611 23.5437 8.43879 23.5444 8.49307 23.5451C9.04042 23.5521 9.58774 23.5603 10.1351 23.5691C10.3394 23.5722 10.5438 23.5751 10.7482 23.5777C11.0417 23.5814 11.3351 23.5862 11.6285 23.5911C11.7202 23.5921 11.8119 23.593 11.9063 23.594C12.0339 23.5964 12.0339 23.5964 12.164 23.5989C12.2389 23.6 12.3138 23.6011 12.391 23.6022C12.5818 23.6251 12.5818 23.6251 12.8269 23.7891C12.9553 24.2017 12.8722 24.4509 12.7043 24.8395C12.6822 24.8918 12.66 24.9441 12.6371 24.9979C12.5654 25.1663 12.4919 25.3339 12.4184 25.5015C12.3691 25.6166 12.3199 25.7317 12.2708 25.8469C12.066 26.3255 11.857 26.8021 11.6454 27.2777C11.6183 27.339 11.5911 27.4003 11.5631 27.4634C11.4945 27.6171 11.4245 27.7701 11.3544 27.9231C11.3281 27.9936 11.3017 28.0641 11.2746 28.1368C11.3016 28.1909 11.3285 28.2451 11.3563 28.3009C11.9588 27.6492 12.5555 26.995 13.1294 26.3177C13.2124 26.2199 13.2954 26.1222 13.3784 26.0245C13.4414 25.9502 13.4414 25.9502 13.5058 25.8745C13.782 25.5508 14.0647 25.2344 14.3537 24.9222C14.6944 24.554 15.0124 24.1717 15.3257 23.7798C15.6025 23.4476 15.896 23.132 16.1922 22.8171C16.406 22.6334 16.406 22.6334 16.5034 22.3946C16.4497 22.3939 16.396 22.3933 16.3406 22.3926C15.7827 22.3856 15.2248 22.3774 14.6668 22.3686C14.4585 22.3654 14.2501 22.3626 14.0418 22.36C13.7427 22.3563 13.4436 22.3515 13.1444 22.3465C13.0043 22.3451 13.0043 22.3451 12.8613 22.3437C12.7746 22.342 12.6879 22.3404 12.5986 22.3387C12.5222 22.3376 12.4459 22.3365 12.3672 22.3354C12.1733 22.3126 12.1733 22.3126 11.9282 22.1485C11.8107 21.4778 12.1534 20.8983 12.4235 20.3028C12.4725 20.1923 12.5213 20.0818 12.57 19.9712C12.7439 19.5775 12.9208 19.1851 13.098 18.7928C13.1568 18.6628 13.2153 18.5326 13.2735 18.4023C13.3422 18.2489 13.4123 18.0962 13.4824 17.9435C13.5892 17.7158 13.5892 17.7158 13.4805 17.4727Z" fill="currentColor"/>
</svg>
