<svg version="1.0" xmlns="http://www.w3.org/2000/svg"
 viewBox="0 0 512.000000 512.000000"
 >

<g transform="translate(0.000000,512.000000) scale(0.100000,-0.100000)"
fill="currentColor" stroke="none">
<path d="M1854 4602 c-214 -76 -292 -371 -162 -614 65 -123 196 -216 326 -234
141 -18 292 92 336 245 21 70 20 202 0 272 -72 246 -305 401 -500 331z m197
-126 c68 -32 117 -84 156 -164 36 -73 38 -80 38 -177 0 -88 -3 -107 -26 -150
-51 -101 -175 -139 -277 -86 -176 91 -252 368 -142 520 56 77 160 101 251 57z"/>
<path d="M2700 4498 c-156 -84 -188 -328 -60 -459 73 -76 163 -88 253 -36 81
48 126 138 127 254 0 61 -4 80 -33 134 -44 86 -95 122 -180 127 -51 3 -70 -1
-107 -20z m146 -113 c78 -54 68 -237 -16 -280 -40 -20 -62 -19 -95 7 -72 57
-73 191 -1 263 29 29 79 33 112 10z"/>
<path d="M3304 4201 c-62 -28 -120 -86 -151 -149 -36 -76 -39 -186 -6 -247 60
-112 171 -144 291 -84 105 52 165 152 166 274 1 73 -15 116 -58 163 -55 61
-161 80 -242 43z m157 -127 c34 -37 33 -114 -4 -176 -30 -51 -64 -77 -111 -85
-96 -15 -138 108 -70 210 51 77 138 101 185 51z"/>
<path d="M3770 3733 c-63 -23 -151 -113 -173 -177 -38 -111 -10 -214 71 -271
39 -27 51 -30 120 -30 93 0 149 24 217 92 123 126 110 314 -27 384 -46 24
-144 24 -208 2z m175 -128 c72 -71 -21 -221 -144 -233 -43 -4 -53 -1 -75 21
-46 46 -32 130 31 188 42 40 63 48 116 49 38 0 53 -5 72 -25z"/>
<path d="M2287 3639 c-258 -29 -483 -184 -591 -403 -71 -145 -90 -296 -74
-590 12 -229 6 -374 -22 -479 -50 -197 -130 -291 -365 -431 -191 -114 -288
-206 -353 -336 -55 -111 -76 -194 -75 -305 0 -226 126 -425 337 -532 111 -56
254 -76 393 -53 404 65 942 453 1505 1085 296 333 441 553 500 761 30 105 32
295 4 399 -55 204 -167 387 -338 553 -94 91 -187 156 -313 217 -208 102 -401
139 -608 114z m314 -134 c135 -28 314 -112 431 -201 183 -139 339 -363 394
-564 24 -89 24 -263 0 -350 -51 -185 -179 -379 -460 -700 -398 -453 -805 -794
-1141 -956 -150 -72 -251 -103 -367 -111 -103 -7 -176 8 -267 53 -138 69 -237
206 -262 360 -22 138 38 316 148 434 40 44 99 87 221 162 203 126 287 203 349
323 91 177 112 321 95 665 -11 249 -4 377 28 480 96 317 443 486 831 405z"/>
<path d="M2020 2937 c-53 -17 -124 -93 -138 -149 -18 -70 -15 -276 3 -329 56
-157 257 -199 372 -78 33 35 63 104 63 145 0 31 -33 64 -63 64 -27 0 -57 -28
-57 -54 0 -32 -30 -83 -56 -95 -56 -25 -115 -6 -139 46 -13 27 -16 59 -13 158
3 121 4 125 31 152 22 22 37 28 71 28 56 0 94 -32 103 -88 7 -47 26 -67 63
-67 41 0 65 37 55 87 -26 142 -159 223 -295 180z"/>
<path d="M2530 2929 c-105 -47 -132 -100 -138 -268 -3 -75 0 -145 7 -176 14
-64 67 -130 125 -156 99 -45 224 -6 281 86 29 47 30 53 33 190 4 169 -5 211
-59 270 -67 72 -163 93 -249 54z m163 -139 c26 -30 27 -33 27 -156 0 -73 -5
-134 -11 -147 -32 -63 -107 -76 -161 -28 l-33 29 -3 124 c-2 102 0 129 15 158
35 68 114 77 166 20z"/>
<path d="M3000 2668 c-76 -39 -120 -131 -86 -183 30 -46 106 -23 106 32 0 11
9 28 20 38 31 28 74 10 78 -32 3 -33 4 -33 -108 -116 -30 -22 -56 -54 -77 -96
-38 -73 -40 -94 -13 -121 18 -18 33 -20 153 -20 117 0 136 2 150 18 10 10 17
30 17 44 0 41 -27 57 -108 60 l-73 3 68 50 c87 64 113 103 113 167 0 65 -24
114 -71 145 -55 36 -113 40 -169 11z"/>
<path d="M4000 3121 c-159 -49 -258 -212 -205 -339 22 -51 52 -81 110 -108
157 -74 370 36 407 211 27 129 -81 246 -226 244 -34 0 -72 -4 -86 -8z m156
-130 c42 -26 49 -61 25 -116 -29 -66 -86 -100 -168 -100 -59 0 -67 3 -89 28
-89 103 109 263 232 188z"/>
</g>
</svg>
