<svg version="1.0" xmlns="http://www.w3.org/2000/svg"
 viewBox="0 0 512.000000 512.000000"
 >

<g transform="translate(0.000000,512.000000) scale(0.100000,-0.100000)"
fill="currentColor" stroke="none">
<path d="M2334 4900 c-804 -85 -1501 -560 -1863 -1268 -180 -355 -256 -673
-256 -1077 1 -385 68 -678 234 -1020 289 -595 798 -1029 1436 -1226 409 -125
898 -129 1315 -9 775 222 1371 809 1610 1585 68 221 95 414 95 680 -1 294 -29
470 -122 749 -255 767 -922 1366 -1718 1541 -203 44 -540 65 -731 45z m437
-140 c442 -45 873 -226 1210 -508 551 -462 848 -1185 778 -1898 -74 -768 -542
-1442 -1234 -1780 -745 -363 -1635 -276 -2299 226 -606 457 -941 1221 -866
1971 88 872 674 1608 1500 1883 295 98 615 135 911 106z"/>
<path d="M2380 4378 c-194 -18 -437 -87 -617 -174 -514 -251 -878 -720 -993
-1281 -131 -635 99 -1314 587 -1738 490 -425 1159 -561 1771 -359 618 203
1073 706 1216 1345 134 602 -53 1239 -493 1680 -303 302 -692 485 -1125 528
-124 12 -209 12 -346 -1z m341 -139 c671 -68 1232 -517 1441 -1153 113 -344
112 -713 -2 -1059 -42 -128 -147 -334 -227 -447 -87 -122 -271 -306 -393 -393
-113 -80 -319 -185 -447 -227 -490 -162 -1021 -93 -1453 188 -590 383 -882
1101 -726 1782 190 829 971 1395 1807 1309z"/>
<path d="M2513 3958 c-11 -13 -106 -196 -210 -408 l-189 -386 -405 -58 c-222
-32 -422 -62 -444 -66 -45 -10 -65 -32 -65 -72 0 -24 38 -65 233 -256 127
-125 271 -265 319 -312 l87 -85 -75 -430 c-40 -236 -74 -436 -74 -443 0 -7 12
-24 26 -39 19 -19 32 -24 52 -20 15 3 199 96 410 207 l383 201 376 -198 c207
-109 389 -202 404 -207 34 -11 76 13 84 47 3 12 -28 216 -69 452 l-75 430 87
85 c552 540 552 539 552 568 0 40 -20 62 -65 72 -22 4 -222 34 -444 67 l-405
58 -189 385 c-105 212 -199 395 -210 408 -12 12 -32 22 -47 22 -15 0 -35 -10
-47 -22z m221 -559 c102 -206 177 -345 190 -354 11 -7 165 -34 341 -59 382
-55 424 -62 429 -67 1 -2 -120 -123 -270 -269 -154 -149 -277 -276 -281 -289
-3 -14 21 -183 59 -400 35 -207 64 -377 63 -378 -1 -2 -155 78 -344 177 -188
99 -350 180 -361 180 -10 0 -172 -81 -361 -180 -188 -99 -343 -179 -344 -178
-1 2 28 172 63 379 38 216 62 386 59 400 -4 13 -127 140 -280 289 -205 199
-269 267 -258 272 9 4 178 30 376 58 198 28 369 58 381 65 13 8 90 152 189
354 93 188 172 341 175 341 4 0 82 -153 174 -341z"/>
</g>
</svg>
