<svg  viewBox="0 0 20 21" fill="currentColor" xmlns="http://www.w3.org/2000/svg">
<path d="M9.99707 0C12.6486 0.00239752 15.1911 1.08333 17.0664 3.00586C18.9418 4.9286 19.9969 7.53627 20 10.2559C20 12.2841 19.4131 14.2666 18.3145 15.9531C17.2158 17.6396 15.6542 18.9541 13.8271 19.7305C12.0001 20.5067 9.98943 20.7099 8.0498 20.3145C6.11027 19.9189 4.32822 18.9426 2.92969 17.5088C1.5312 16.0749 0.578588 14.2478 0.192383 12.2588C-0.193823 10.2696 0.00434729 8.20707 0.760742 6.33301C1.51716 4.45912 2.79842 2.85672 4.44238 1.72949C6.08636 0.602392 8.01958 0.000636359 9.99707 0ZM13.5557 1.45215C11.8577 0.731181 9.98893 0.542412 8.18652 0.910156C6.38396 1.27804 4.72734 2.18668 3.42773 3.51953C2.12843 4.85225 1.24347 6.55006 0.884766 8.39844C0.526055 10.2471 0.710034 12.1637 1.41309 13.9053C2.11615 15.6468 3.30709 17.135 4.83496 18.1826C6.36286 19.2302 8.15918 19.7904 9.99707 19.791C12.4622 19.789 14.8262 18.7838 16.5693 16.9961C18.3124 15.2084 19.2921 12.784 19.2939 10.2559C19.2933 8.37109 18.7479 6.52882 17.7266 4.96191C16.7052 3.39503 15.2536 2.17321 13.5557 1.45215ZM10.5518 2.0166C14.5626 2.28531 17.7976 5.63215 18.0596 9.75684C18.0845 10.1529 17.9079 10.1987 17.6133 10.251C15.5526 10.6154 13.4949 10.9984 11.4326 11.3564C11.1773 11.4015 11.1518 11.4954 11.1973 11.7197C11.6186 13.7751 13.84 15.3753 15.8857 15.1025C16.0873 15.0751 16.3838 14.8997 16.4795 15.0879C16.5546 15.2367 16.2777 15.4525 16.1357 15.6182C14.5027 17.5318 12.4431 18.4959 11.0625 18.5146C5.78481 18.5138 2.32295 15.2619 1.96289 10.998C1.85719 9.80648 2.00475 8.60554 2.39648 7.47852C2.78828 6.35146 3.41456 5.32499 4.23145 4.4707C5.04853 3.61633 6.03757 2.95389 7.12891 2.53027C8.22007 2.10674 9.38804 1.93127 10.5518 2.0166ZM14.085 8.38965C13.8175 7.54588 12.9442 7.03802 12.0752 7.21875C11.2782 7.38448 10.6844 8.18468 10.7236 9.02539C10.7291 9.19892 10.7318 9.29411 10.959 9.23633C11.3073 9.14703 11.67 9.11417 12.0254 9.0498C12.7336 8.9211 13.4419 8.788 14.1572 8.65527C14.1259 8.54036 14.1085 8.46438 14.085 8.38965Z" fill="currentColor"/>
</svg>
