<svg width="27" height="50" viewBox="0 0 27 50" fill="none" xmlns="http://www.w3.org/2000/svg">
<path d="M12.1708 0.628121C12.28 0.627649 12.3893 0.627177 12.5019 0.626691C12.7326 0.626059 12.9633 0.626002 13.194 0.626481C13.5462 0.626829 13.8983 0.624244 14.2505 0.621453C14.475 0.621202 14.6995 0.621125 14.924 0.621238C15.0289 0.620223 15.1338 0.619209 15.2419 0.618164C15.8189 0.622168 16.2277 0.662837 16.7247 0.991643C17.5419 1.83366 17.5278 2.68477 17.5244 3.79754C17.524 4.03417 17.5266 4.27065 17.5294 4.50727C17.5296 4.65841 17.5297 4.80956 17.5296 4.9607C17.5299 5.09722 17.5302 5.23374 17.5306 5.3744C17.4873 5.75002 17.4339 5.91027 17.1619 6.16785C17.0537 6.16785 16.9455 6.16785 16.834 6.16785C16.8701 6.27689 16.9062 6.38592 16.9433 6.49825C17.2033 6.63374 17.2033 6.63374 17.524 6.74605C20.4574 7.92048 22.4651 10.2584 23.7206 13.1062C23.754 13.1816 23.7874 13.2571 23.8218 13.3348C25.1436 16.3865 25.5803 19.7685 25.8864 23.0594C25.8968 23.1707 25.8968 23.1707 25.9074 23.2844C26.1237 25.6455 26.1237 25.6455 25.6883 26.4322C25.3267 26.8635 25.1311 26.9871 24.5951 27.2031C24.5951 30.8375 24.5951 34.4718 24.5951 38.2163C24.7755 38.289 24.9559 38.3617 25.1417 38.4366C25.6301 38.835 25.865 39.2616 26.0162 39.8683C26.0606 40.3115 26.0596 40.7512 26.0559 41.1963C26.056 41.3853 26.056 41.3853 26.0561 41.578C26.0558 41.8434 26.0548 42.1088 26.0529 42.3742C26.0504 42.7782 26.0507 43.1822 26.0514 43.5863C26.0508 43.8451 26.05 44.1039 26.0491 44.3626C26.0492 44.4824 26.0493 44.6022 26.0494 44.7257C26.0368 46.1027 25.74 47.279 24.8001 48.3278C23.9918 49.0839 22.9826 49.4621 21.8983 49.466C21.8251 49.4664 21.752 49.4668 21.6766 49.4672C21.4315 49.4684 21.1864 49.4689 20.9413 49.4693C20.7655 49.47 20.5897 49.4707 20.4139 49.4715C19.8364 49.4738 19.259 49.4749 18.6816 49.476C18.4826 49.4765 18.2835 49.4769 18.0844 49.4774C17.1487 49.4795 16.2131 49.4811 15.2774 49.482C14.1991 49.4831 13.1207 49.486 12.0424 49.4904C11.2078 49.4937 10.3734 49.4954 9.53884 49.4957C9.04093 49.496 8.54304 49.497 8.04514 49.4997C7.57615 49.5023 7.1072 49.5028 6.6382 49.5016C6.46684 49.5016 6.29548 49.5023 6.12412 49.5038C4.72899 49.5155 3.5713 49.3246 2.51417 48.3485C1.5103 47.3511 1.18151 46.2083 1.16925 44.8119C1.1694 44.6236 1.1694 44.6236 1.16955 44.4315C1.16908 44.3001 1.16861 44.1687 1.16813 44.0334C1.16751 43.7567 1.16745 43.48 1.16792 43.2034C1.16827 42.7809 1.1657 42.3585 1.16293 41.9361C1.16268 41.6665 1.16261 41.397 1.16272 41.1275C1.16171 41.0018 1.16071 40.876 1.15967 40.7464C1.16452 39.9022 1.23511 39.3395 1.78998 38.6775C2.06841 38.4437 2.28799 38.3412 2.62348 38.2163C2.62453 36.429 2.62184 34.6417 2.61471 32.8543C2.61148 32.0245 2.60948 31.1946 2.61035 30.3647C2.61111 29.6414 2.60958 28.9182 2.60529 28.1949C2.6031 27.8119 2.60206 27.4289 2.60376 27.0459C2.60562 26.6184 2.60236 26.191 2.59866 25.7635C2.60067 25.5728 2.60067 25.5728 2.60271 25.3782C2.59766 25.055 2.58843 24.7643 2.51417 24.4498C2.21487 24.1518 2.21487 24.1518 1.8583 24.0093C1.42628 23.5498 1.21416 23.1026 1.18962 22.4648C1.51422 17.939 2.77593 13.236 5.68421 9.69208C5.7534 9.60421 5.82258 9.51633 5.89387 9.42579C6.94367 8.1516 8.62145 6.8112 10.2753 6.49825C10.2753 6.38922 10.2753 6.28019 10.2753 6.16785C10.1874 6.15423 10.0994 6.1406 10.0089 6.12655C9.91642 6.10384 9.82398 6.08113 9.72875 6.05772C9.56778 5.73338 9.59941 5.40377 9.59723 5.04803C9.59661 4.96951 9.59598 4.89098 9.59534 4.81007C9.59431 4.64352 9.59359 4.47697 9.59317 4.31042C9.59212 4.05757 9.58873 3.80483 9.58527 3.552C9.58456 3.38989 9.58399 3.22777 9.58357 3.06566C9.58222 2.99083 9.58087 2.916 9.57948 2.83891C9.58264 2.14467 9.76092 1.65462 10.207 1.12243C10.822 0.606033 11.4022 0.627387 12.1708 0.628121ZM10.8219 2.31323C10.8219 3.18548 10.8219 4.05772 10.8219 4.9564C12.6255 4.9564 14.4292 4.9564 16.2875 4.9564C16.4748 2.71888 16.4748 2.71888 16.0688 1.98283C15.8225 1.85876 15.6843 1.85692 15.4109 1.85321C15.2751 1.85109 15.2751 1.85109 15.1367 1.84892C15.0387 1.84811 14.9408 1.8473 14.8399 1.84646C14.6891 1.84512 14.6891 1.84512 14.5352 1.84376C14.3222 1.84224 14.1092 1.84106 13.8962 1.84019C13.5704 1.8383 13.2447 1.83346 12.9189 1.8286C12.712 1.82749 12.5052 1.82655 12.2984 1.82581C12.2009 1.82388 12.1035 1.82195 12.003 1.81997C11.9118 1.82029 11.8207 1.82061 11.7267 1.82094C11.6468 1.8203 11.5669 1.81965 11.4845 1.81898C11.1861 1.8691 11.1861 1.8691 10.8219 2.31323ZM11.4777 6.16785C11.4417 6.53129 11.4056 6.89473 11.3684 7.26918C11.2473 7.3173 11.2473 7.3173 11.1238 7.3664C9.92557 7.85418 8.86002 8.40914 7.87045 9.25155C7.7828 9.32382 7.69515 9.39608 7.60485 9.47053C4.1183 12.4635 2.90447 17.6499 2.41724 22.0303C2.40418 22.1434 2.39112 22.2565 2.37766 22.373C2.41468 22.8013 2.52937 22.9475 2.84211 23.2383C3.13069 23.3474 3.41927 23.4564 3.7166 23.5687C3.7166 28.7295 3.7166 33.8903 3.7166 39.2075C3.39194 39.2802 3.06729 39.3529 2.73279 39.4278C2.38461 39.7555 2.38425 40.093 2.36243 40.5509C2.36026 40.784 2.36001 41.0171 2.3613 41.2501C2.36099 41.3741 2.36068 41.4981 2.36035 41.6258C2.36013 41.888 2.36073 42.1501 2.36211 42.4123C2.36385 42.8114 2.36212 43.2103 2.36002 43.6093C2.36024 43.8646 2.36066 44.1199 2.3613 44.3751C2.36064 44.4935 2.35998 44.612 2.35929 44.734C2.36829 45.7155 2.50917 46.5374 3.1837 47.2816C3.26064 47.3697 3.33758 47.4579 3.41685 47.5487C4.33 48.3075 5.29583 48.3024 6.43037 48.2971C6.60428 48.2979 6.77819 48.2988 6.95211 48.3C7.42212 48.3024 7.89208 48.3021 8.36209 48.3011C8.75543 48.3006 9.14876 48.3014 9.54209 48.3022C10.4705 48.3041 11.3988 48.3037 12.3272 48.3018C13.2829 48.3 14.2385 48.3017 15.1942 48.3053C16.0167 48.3082 16.8393 48.309 17.6618 48.3081C18.1522 48.3075 18.6425 48.3078 19.1329 48.31C19.5942 48.3121 20.0554 48.3114 20.5167 48.3087C20.6853 48.3081 20.8539 48.3085 21.0225 48.3099C22.1529 48.3186 22.9979 48.1841 23.8979 47.4558C23.9634 47.3801 24.0289 47.3045 24.0964 47.2265C24.1977 47.1151 24.1977 47.1151 24.3009 47.0015C24.8133 46.1562 24.8629 45.2459 24.8573 44.2783C24.8576 44.1565 24.8579 44.0347 24.8583 43.9092C24.8585 43.6537 24.8579 43.3981 24.8565 43.1426C24.8548 42.7516 24.8565 42.3607 24.8586 41.9696C24.8584 41.7205 24.858 41.4713 24.8573 41.2221C24.8583 41.0473 24.8583 41.0473 24.8593 40.8689C24.8552 40.4343 24.84 40.0614 24.7086 39.646C24.4111 39.3229 24.4111 39.3229 23.502 39.0974C23.502 34.8815 23.502 30.6657 23.502 26.322C23.8267 26.213 24.1513 26.104 24.4858 25.9916C24.729 25.823 24.729 25.823 24.8138 25.5511C24.8323 25.2407 24.8293 24.9644 24.8069 24.6563C24.801 24.5622 24.795 24.468 24.7889 24.371C24.4346 19.3718 23.8078 13.8038 20.2227 10.0225C20.1636 9.95476 20.1046 9.88704 20.0438 9.81727C19.1608 8.84258 17.9179 8.2097 16.7247 7.7097C16.5355 7.62523 16.3465 7.54036 16.1576 7.45502C16.0201 7.39369 15.8826 7.33236 15.7409 7.26918C15.7048 6.90574 15.6687 6.5423 15.6316 6.16785C14.2608 6.16785 12.89 6.16785 11.4777 6.16785Z" fill="currentColor"/>
<path d="M16.2599 9.6582C17.5567 9.78054 19.104 11.1073 19.9291 12.0734C21.5093 14.2307 22.0811 16.8878 22.4091 19.4935C22.4283 19.6381 22.4283 19.6381 22.4479 19.7856C22.5935 20.9013 22.6549 22.0168 22.6756 23.1416C22.6793 23.2552 22.6831 23.3688 22.687 23.4858C22.6918 24.3621 22.4907 25.0973 21.8942 25.7579C21.1274 26.4788 20.1366 26.8627 19.0956 26.9068C18.6925 26.8724 18.6925 26.8724 18.5083 26.7367C18.3285 26.4931 18.3103 26.3362 18.2859 26.0347C18.2767 25.9313 18.2675 25.8279 18.258 25.7214C18.2495 25.609 18.241 25.4966 18.2322 25.3809C18.222 25.2637 18.2119 25.1466 18.2014 25.0259C18.1796 24.7743 18.1583 24.5226 18.1376 24.2709C18.083 23.6138 18.0228 22.9572 17.9619 22.3006C17.9499 22.1711 17.9379 22.0415 17.9256 21.9081C17.6515 19.009 17.1374 16.1262 16.3795 13.3154C16.3493 13.2035 16.3493 13.2035 16.3186 13.0893C16.221 12.7282 16.1213 12.3679 16.0187 12.0081C15.8187 11.2879 15.6716 10.6611 15.7411 9.91202C15.9597 9.69176 15.9597 9.69176 16.2599 9.6582ZM17.2715 11.564C17.3839 12.1656 17.5106 12.7618 17.6558 13.3562C18.6336 17.3688 19.165 21.4321 19.4577 25.5508C20.1662 25.521 20.5813 25.2634 21.0974 24.7799C21.5324 24.2144 21.5565 23.6088 21.5128 22.9136C21.5049 22.7875 21.497 22.6614 21.4889 22.5315C21.1435 16.9228 21.1435 16.9228 18.3646 12.2248C17.8764 11.7585 17.8764 11.7585 17.2715 11.564Z" fill="currentColor"/>
<path d="M5.35645 37.7754C10.8034 37.7754 16.2505 37.7754 21.8625 37.7754C21.8625 38.1752 21.8625 38.575 21.8625 38.9868C16.4155 38.9868 10.9685 38.9868 5.35645 38.9868C5.35645 38.5871 5.35645 38.1873 5.35645 37.7754Z" fill="currentColor"/>
<path d="M5.35645 23.7881C9.03588 23.7881 12.7153 23.7881 16.5062 23.7881C16.5062 24.1515 16.5062 24.515 16.5062 24.8894C16.2927 25.1046 15.9669 25.0128 15.6827 25.0132C15.5798 25.0128 15.477 25.0125 15.371 25.012C15.2095 25.0121 15.2095 25.0121 15.0447 25.0121C14.6868 25.012 14.329 25.0112 13.9711 25.0103C13.7238 25.0101 13.4764 25.0099 13.229 25.0098C12.5765 25.0094 11.924 25.0083 11.2715 25.0071C10.6062 25.006 9.94093 25.0055 9.27566 25.0049C7.96925 25.0037 6.66285 25.0019 5.35645 24.9995C5.35645 24.5998 5.35645 24.2 5.35645 23.7881Z" fill="currentColor"/>
</svg>
