<svg width="27" height="50" viewBox="0 0 27 50" fill="none" xmlns="http://www.w3.org/2000/svg">
<path d="M8.2175 0C11.8332 0 15.4488 0 19.174 0C19.174 1.80469 19.174 3.60937 19.174 5.46875C18.7221 5.50098 18.2701 5.5332 17.8045 5.56641C17.9235 5.70941 18.0425 5.85242 18.1652 5.99976C18.7291 6.68752 19.2666 7.3948 19.8053 8.10232C20.0177 8.38087 20.2317 8.65824 20.4458 8.93555C20.8218 9.42305 21.1965 9.91152 21.5708 10.4004C21.9512 10.8973 22.332 11.394 22.7141 11.8896C22.7915 11.9901 22.869 12.0906 22.9487 12.1941C23.1141 12.4083 23.2797 12.6225 23.4455 12.8365C23.4889 12.8925 23.5322 12.9486 23.5769 13.0063C23.6964 13.1608 23.8161 13.3153 23.9358 13.4697C24.0108 13.5686 24.0858 13.6676 24.1632 13.7695C24.2051 13.8193 24.247 13.8691 24.2902 13.9203C24.6339 14.3499 24.7225 14.7003 24.7125 15.2503C24.713 15.327 24.7136 15.4036 24.7141 15.4826C24.7153 15.7342 24.7129 15.9856 24.7104 16.2373C24.7102 16.4135 24.7102 16.5897 24.7104 16.7659C24.7102 17.1348 24.7084 17.5035 24.7053 17.8724C24.7014 18.3429 24.701 18.8133 24.7017 19.2839C24.702 19.6478 24.7008 20.0116 24.6992 20.3755C24.6985 20.5488 24.6982 20.7222 24.6983 20.8956C24.6975 21.9971 24.6821 22.9942 24.0714 23.9563C24.0209 24.0362 23.9703 24.1162 23.9182 24.1985C23.7513 24.4443 23.5754 24.6779 23.3805 24.9023C23.4243 24.9404 23.4681 24.9784 23.5131 25.0175C24.1397 25.5963 24.6129 26.3399 24.679 27.206C24.7143 28.275 24.5978 29.1773 23.9002 30.0415C23.7605 30.1848 23.62 30.3273 23.4784 30.4688C23.5303 30.5197 23.5823 30.5707 23.6358 30.6232C24.3759 31.393 24.6664 32.0855 24.7012 33.1543C24.6601 34.3808 24.2474 35.0851 23.3805 35.9375C23.4356 36.0068 23.4356 36.0068 23.4917 36.0775C24.5088 37.3895 24.6837 38.5197 24.6851 40.1413C24.6858 40.3034 24.6864 40.4655 24.6871 40.6276C24.6883 40.9664 24.6887 41.3053 24.6885 41.6441C24.6885 42.075 24.6912 42.5058 24.6946 42.9366C24.6967 43.2713 24.6971 43.6059 24.697 43.9405C24.6973 44.0992 24.6981 44.2579 24.6996 44.4166C24.7124 45.8732 24.5105 47.132 23.4784 48.2422C22.5803 49.0304 21.7011 49.2629 20.5264 49.2481C20.3162 49.2489 20.1059 49.2497 19.8957 49.2506C19.8957 49.2506 19.4653 49.2836 17 49.2836H15.8772C15.8772 49.2836 15.7875 49.2807 15.2399 49.2836C15.0927 49.2847 13.1069 49.2836 13.1069 49.2836C10.993 49.2812 11.1517 49.2836 11.1517 49.2836C11.172 49.2798 10.4895 49.2805 10.1884 49.2819C10.0942 49.2816 10.0001 49.2812 9.90317 49.2808C9.80188 49.2818 9.70059 49.2827 9.59624 49.2836C9.37995 49.2824 9.16366 49.2811 8.94737 49.2798C8.60781 49.2794 8.26827 49.2798 7.9287 49.2812C6.28762 49.2854 4.95296 49.2655 3.7175 48.0469C3.48583 47.769 3.29598 47.4894 3.13054 47.168C3.09853 47.11 3.06651 47.0521 3.03352 46.9923C2.62882 46.1514 2.68242 45.2901 2.68727 44.3787C2.687 44.2029 2.68662 44.0271 2.68613 43.8513C2.68556 43.4842 2.68639 43.1171 2.68822 42.7501C2.69045 42.2818 2.68917 41.8137 2.68683 41.3455C2.68541 40.9829 2.68587 40.6203 2.68688 40.2576C2.68714 40.0851 2.68682 39.9126 2.68591 39.74C2.68118 38.6023 2.74946 37.6913 3.43014 36.731C3.47768 36.6627 3.52522 36.5945 3.5742 36.5242C3.71809 36.3273 3.8638 36.1319 4.01098 35.9375C3.94534 35.8822 3.94534 35.8822 3.87838 35.8257C3.22138 35.2286 2.78764 34.4227 2.71937 33.5289C2.69834 32.2031 3.13202 31.4062 3.91315 30.3711C3.84581 30.3018 3.84581 30.3018 3.77711 30.2311C2.98139 29.375 2.70223 28.5451 2.71134 27.3888C2.79729 26.3474 3.35003 25.5745 4.01098 24.8047C3.96722 24.7596 3.92346 24.7146 3.87838 24.6681C3.0955 23.8249 2.73257 23.0155 2.7095 21.8732C2.7076 21.7945 2.7057 21.7158 2.70375 21.6348C2.68722 20.9077 2.67776 20.1804 2.67038 19.4532C2.66537 18.9657 2.65811 18.4784 2.64531 17.991C2.63293 17.5181 2.6265 17.0455 2.62405 16.5725C2.62215 16.3936 2.61823 16.2146 2.61213 16.0357C2.57584 14.9183 2.69677 14.2155 3.45965 13.3665C3.56092 13.2591 3.66308 13.1525 3.76617 13.0468C3.99475 12.8039 4.19017 12.5409 4.39005 12.2742C4.43395 12.217 4.47785 12.1598 4.52308 12.1009C4.55813 12.0551 4.59317 12.0093 4.62927 11.9621C4.93466 11.564 5.24319 11.1684 5.55174 10.7727C5.63873 10.6611 5.63873 10.6611 5.72747 10.5473C5.84613 10.3952 5.9648 10.243 6.08348 10.0909C6.42755 9.6497 6.77134 9.2083 7.11514 8.76691C7.41004 8.38834 7.70511 8.00991 8.00045 7.63168C8.06136 7.55363 8.12226 7.47559 8.18502 7.39517C8.30037 7.24737 8.41577 7.09961 8.53123 6.9519C8.88852 6.49394 9.23935 6.03166 9.58706 5.56641C8.90913 5.51807 8.90913 5.51807 8.2175 5.46875C8.2175 3.66406 8.2175 1.85938 8.2175 0ZM9.78272 1.46484C9.78272 2.27051 9.78272 3.07617 9.78272 3.90625C12.3653 3.90625 14.9479 3.90625 17.6088 3.90625C17.6088 3.10059 17.6088 2.29492 17.6088 1.46484C15.0262 1.46484 12.4436 1.46484 9.78272 1.46484ZM10.761 6.64062C10.616 6.83525 10.4695 7.02872 10.3208 7.22046C10.249 7.31714 10.1773 7.41382 10.1033 7.51343C9.87113 7.82513 9.63518 8.13361 9.39753 8.44116C9.3568 8.4939 9.31606 8.54664 9.2741 8.60097C9.19147 8.70792 9.10881 8.81485 9.02614 8.92177C8.82151 9.18655 8.61735 9.45169 8.41315 9.7168C8.33163 9.82259 8.25011 9.92839 8.16859 10.0342C8.12823 10.0865 8.08788 10.1389 8.0463 10.1929C7.67946 10.6689 7.67946 10.6689 7.55713 10.8277C7.47574 10.9333 7.39438 11.0389 7.31304 11.1446C7.10723 11.4118 6.90109 11.6788 6.69432 11.9453C5.75453 12.952 5.75453 12.952 5.18489 14.0625C10.8343 14.0625 16.4838 14.0625 22.3045 14.0625C21.9395 13.5159 21.5874 13.0032 21.1733 12.5C20.574 11.7619 19.9959 11.0087 19.4198 10.2525C19.2023 9.96739 18.9834 9.68332 18.7644 9.39941C18.6863 9.2982 18.6083 9.19699 18.5278 9.09271C18.4505 8.99251 18.3732 8.8923 18.2936 8.78906C18.09 8.52494 17.8865 8.26077 17.683 7.99658C17.4745 7.72594 17.2658 7.45538 17.057 7.18498C17.0143 7.12959 16.9715 7.0742 16.9275 7.01714C16.8097 6.86452 16.6918 6.71195 16.574 6.55937C16.3371 6.25 16.3371 6.25 16.2172 6.05302C15.9556 5.64062 15.9556 5.64062 15.5496 5.39208C15.3134 5.35902 15.0883 5.35022 14.8498 5.35126C14.7639 5.34958 14.6781 5.34791 14.5896 5.34618C14.4084 5.34395 14.2271 5.34374 14.0459 5.34544C13.7708 5.34667 13.4973 5.33753 13.2223 5.32761C11.9441 5.3097 11.425 5.53645 10.761 6.64062ZM4.30446 15.625C3.68014 19.9813 3.68014 19.9813 5.11764 23.6694C5.69497 24.1659 6.38293 24.2623 7.11313 24.252C7.23496 24.2521 7.23496 24.2521 7.35925 24.2521C7.62498 24.2519 7.89064 24.2497 8.15636 24.2474C8.34167 24.2468 8.52698 24.2464 8.71229 24.2461C9.19798 24.245 9.68365 24.2421 10.1693 24.2389C10.6658 24.2359 11.1622 24.2345 11.6586 24.2331C12.6312 24.2299 13.6037 24.2248 14.5762 24.2188C14.5762 24.7344 14.5762 25.25 14.5762 25.7812C14.4689 25.7804 14.3615 25.7795 14.2509 25.7786C13.2377 25.7707 12.2244 25.7648 11.2112 25.761C10.6903 25.759 10.1694 25.7562 9.64854 25.7518C9.14554 25.7475 8.64257 25.7452 8.13955 25.7442C7.94798 25.7435 7.7564 25.7421 7.56483 25.74C7.29578 25.7371 7.02682 25.7367 6.75775 25.7369C6.67915 25.7355 6.60055 25.7341 6.51957 25.7326C5.88083 25.7373 5.37546 25.9234 4.88912 26.3424C4.48179 26.8513 4.2525 27.24 4.27427 27.9186C4.36671 28.5506 4.71727 28.9748 5.19674 29.3724C5.69005 29.6939 6.14833 29.7148 6.72443 29.7097C6.80942 29.7097 6.89442 29.7097 6.98198 29.7098C7.262 29.7096 7.54198 29.7081 7.82199 29.7066C8.0165 29.7062 8.211 29.7059 8.4055 29.7057C8.91676 29.705 9.42801 29.7031 9.93927 29.7009C10.4612 29.6989 10.9832 29.698 11.5052 29.697C12.5289 29.6949 13.5525 29.6916 14.5762 29.6875C14.5762 30.2031 14.5762 30.7188 14.5762 31.25C14.4689 31.2491 14.3615 31.2483 14.2509 31.2474C13.2377 31.2394 12.2244 31.2336 11.2112 31.2298C10.6903 31.2277 10.1694 31.225 9.64854 31.2205C9.14554 31.2163 8.64257 31.2139 8.13955 31.2129C7.94798 31.2122 7.7564 31.2108 7.56483 31.2087C7.29578 31.2059 7.02682 31.2055 6.75775 31.2057C6.67915 31.2042 6.60055 31.2028 6.51957 31.2014C5.88083 31.206 5.37546 31.3922 4.88912 31.8111C4.48904 32.3109 4.24751 32.7066 4.26777 33.374C4.36768 33.9724 4.65683 34.509 5.14821 34.8694C5.65158 35.1579 6.0475 35.1698 6.61338 35.1673C6.69929 35.1673 6.78521 35.1674 6.87373 35.1674C7.15798 35.1673 7.44221 35.1666 7.72646 35.1658C7.92343 35.1656 8.12041 35.1655 8.31739 35.1654C8.83605 35.165 9.3547 35.164 9.87336 35.163C10.4025 35.162 10.9317 35.1615 11.4609 35.161C12.4993 35.16 13.5377 35.1583 14.5762 35.1562C14.5762 35.6719 14.5762 36.1875 14.5762 36.7188C14.3329 36.7167 14.0896 36.7147 13.8389 36.7126C13.0319 36.7061 12.2248 36.7018 11.4177 36.6985C10.9287 36.6965 10.4398 36.6937 9.95083 36.6893C9.47828 36.685 9.00575 36.6827 8.53318 36.6817C8.35358 36.681 8.17399 36.6796 7.99441 36.6774C6.32414 36.6495 6.32414 36.6495 4.89141 37.4329C4.39155 37.9481 4.2678 38.5273 4.26493 39.2231C4.26392 39.3299 4.26392 39.3299 4.26289 39.4389C4.26112 39.6724 4.26148 39.9059 4.26204 40.1394C4.26159 40.3029 4.26107 40.4665 4.26049 40.63C4.25961 40.9721 4.25985 41.3141 4.26082 41.6562C4.26194 42.093 4.25997 42.5298 4.25711 42.9666C4.25531 43.3042 4.25534 43.6417 4.2559 43.9793C4.25592 44.1403 4.25533 44.3012 4.25411 44.4622C4.24796 45.4093 4.26333 46.1112 4.8597 46.8952C4.91253 46.947 4.96537 46.9987 5.01981 47.052C5.07189 47.105 5.12397 47.158 5.17763 47.2126C5.70279 47.6026 6.19516 47.6994 6.83838 47.6849C6.90907 47.6844 6.97975 47.684 7.05258 47.6836C7.27584 47.682 7.49902 47.6783 7.72226 47.6746C7.87466 47.6731 8.02707 47.6718 8.17948 47.6706C8.55091 47.6676 8.92215 47.6619 9.29359 47.6562C9.19674 47.1084 9.09989 46.5605 9.00011 45.9961C9.51663 45.9961 10.0332 45.9961 10.5653 45.9961C10.5734 46.1089 10.5815 46.2217 10.5898 46.3379C10.6932 47.1187 11.0397 47.6129 11.6468 48.1049C12.49 48.7134 13.7501 48.6004 14.7382 48.5119C15.3936 48.3979 15.9835 48.0754 16.3997 47.5521C16.7536 47.0009 16.8262 46.6842 16.8262 45.9961C17.3427 45.9961 17.8592 45.9961 18.3914 45.9961C18.2023 47.2549 18.2023 47.2549 18.0979 47.6562C18.5537 47.6709 19.0093 47.6814 19.4653 47.6884C19.6199 47.6914 19.7746 47.6953 19.9292 47.7005C20.8815 47.7311 21.6511 47.7426 22.4023 47.0703C22.6263 46.8283 22.6263 46.8283 22.7508 46.5698C22.7953 46.489 22.8398 46.4082 22.8857 46.3249C23.0832 45.8841 23.1006 45.5013 23.1044 45.0183C23.1053 44.916 23.1053 44.9161 23.1063 44.8117C23.1083 44.5866 23.1094 44.3615 23.1104 44.1364C23.1108 44.0592 23.1112 43.982 23.1116 43.9025C23.1136 43.4937 23.115 43.0849 23.1159 42.6761C23.117 42.2556 23.1204 41.8352 23.1243 41.4146C23.1268 41.0898 23.1276 40.765 23.128 40.4402C23.1285 40.2853 23.1296 40.1304 23.1314 39.9754C23.1418 39.0378 23.1296 38.2321 22.5139 37.4702C22.4528 37.4196 22.3918 37.369 22.3289 37.3169C22.2689 37.2648 22.2089 37.2127 22.147 37.159C21.4704 36.7329 20.8834 36.6784 20.1034 36.7004C20.0136 36.7018 19.9238 36.7031 19.8313 36.7044C19.6122 36.7079 19.3931 36.7131 19.174 36.7188C19.174 36.2031 19.174 35.6875 19.174 35.1562C19.3415 35.1608 19.509 35.1653 19.6815 35.17C19.9036 35.1736 20.1258 35.1772 20.3479 35.1807C20.5131 35.1856 20.5131 35.1856 20.6815 35.1906C21.4118 35.1991 22.0045 35.1452 22.5505 34.6242C23.0341 34.0733 23.1435 33.6423 23.1302 32.9212C23.0506 32.3606 22.7686 31.9419 22.319 31.601C21.8684 31.333 21.4963 31.2377 20.9796 31.2405C20.8221 31.2409 20.8221 31.2409 20.6615 31.2414C20.4972 31.2426 20.4972 31.2426 20.3296 31.2439C20.1636 31.2446 20.1636 31.2446 19.9943 31.2452C19.7208 31.2464 19.4474 31.2481 19.174 31.25C19.174 30.7344 19.174 30.2188 19.174 29.6875C19.3415 29.692 19.509 29.6966 19.6815 29.7012C19.9036 29.7049 20.1258 29.7085 20.3479 29.7119C20.5131 29.7168 20.5131 29.7168 20.6815 29.7218C21.4118 29.7304 22.0045 29.6764 22.5505 29.1554C23.0389 28.5991 23.1379 28.1725 23.1237 27.4456C23.0579 26.912 22.8232 26.568 22.4267 26.2146C21.9477 25.8518 21.5715 25.7685 20.97 25.7717C20.8654 25.772 20.7607 25.7723 20.6529 25.7727C20.5442 25.7735 20.4355 25.7743 20.3235 25.7751C20.2133 25.7756 20.103 25.776 19.9895 25.7765C19.7177 25.7776 19.4458 25.7794 19.174 25.7812C19.174 25.2656 19.174 24.75 19.174 24.2188C19.311 24.2244 19.4479 24.2301 19.589 24.2359C21.1018 24.2941 21.1018 24.2941 22.3839 23.5733C24.189 21.6847 23.0871 16.8314 23.0871 15.625C16.8888 15.625 10.6905 15.625 4.30446 15.625Z" fill="currentColor"/>
<path d="M9.7825 9.375C10.3313 9.375 10.8801 9.375 11.4455 9.375C11.4455 9.89063 11.4455 10.4062 11.4455 10.9375C10.929 10.9375 10.4125 10.9375 9.88033 10.9375C9.88033 11.4531 9.88033 11.9687 9.88033 12.5C9.33152 12.5 8.78272 12.5 8.21729 12.5C8.21729 11.9844 8.21729 11.4688 8.21729 10.9375C8.73381 10.9375 9.25033 10.9375 9.7825 10.9375C9.7825 10.4219 9.7825 9.90625 9.7825 9.375Z" fill="currentColor"/>
<path d="M16.0435 35.1562C16.5923 35.1562 17.1411 35.1562 17.7065 35.1562C17.7065 35.6719 17.7065 36.1875 17.7065 36.7188C17.1577 36.7188 16.6089 36.7188 16.0435 36.7188C16.0435 36.2031 16.0435 35.6875 16.0435 35.1562Z" fill="currentColor"/>
<path d="M16.0435 29.6875C16.5923 29.6875 17.1411 29.6875 17.7065 29.6875C17.7065 30.2031 17.7065 30.7187 17.7065 31.25C17.1577 31.25 16.6089 31.25 16.0435 31.25C16.0435 30.7344 16.0435 30.2188 16.0435 29.6875Z" fill="currentColor"/>
<path d="M16.0435 24.2188C16.5923 24.2188 17.1411 24.2188 17.7065 24.2188C17.7065 24.7344 17.7065 25.25 17.7065 25.7812C17.1577 25.7812 16.6089 25.7812 16.0435 25.7812C16.0435 25.2656 16.0435 24.75 16.0435 24.2188Z" fill="currentColor"/>
</svg>
