<svg width="35" height="40" viewBox="0 0 35 40" fill="none" xmlns="http://www.w3.org/2000/svg">
<path d="M3.5256 0.0389911C3.6473 0.0384126 3.6473 0.0384126 3.77145 0.0378225C3.90568 0.0377657 3.90568 0.0377657 4.04262 0.0377078C4.13741 0.0373748 4.23219 0.0370417 4.32985 0.0366986C4.59349 0.035789 4.85712 0.0353599 5.12075 0.0350129C5.40487 0.0345604 5.68898 0.033678 5.97309 0.0328629C6.65936 0.0309991 7.34564 0.0298876 8.03191 0.0289064C8.22565 0.0286244 8.41939 0.0283224 8.61313 0.0280132C9.81562 0.0260958 11.0181 0.0244194 12.2206 0.023474C12.4991 0.0232513 12.7777 0.0230263 13.0562 0.0227972C13.1254 0.0227405 13.1946 0.0226838 13.266 0.0226254C14.3884 0.021663 15.5108 0.019137 16.6332 0.0159724C17.7849 0.012752 18.9366 0.0109579 20.0882 0.0105604C20.7351 0.0103006 21.382 0.0094032 22.029 0.00690466C22.5797 0.00478117 23.1304 0.00393877 23.6811 0.00479157C23.9622 0.00518687 24.2433 0.0049591 24.5244 0.00308423C24.8288 0.0010708 25.1332 0.00198351 25.4376 0.003197C25.5269 0.00214199 25.6162 0.00108698 25.7083 0C26.3021 0.00586735 26.3021 0.00586735 26.5584 0.225069C26.6818 0.503932 26.6538 0.669307 26.5749 0.96138C26.4517 1.13397 26.3883 1.18351 26.1808 1.218C26.1124 1.21807 26.044 1.21813 25.9734 1.21819C25.8944 1.21882 25.8154 1.21944 25.734 1.22008C25.6033 1.21938 25.6033 1.21938 25.4699 1.21865C25.3314 1.21925 25.3314 1.21925 25.1902 1.21986C24.9334 1.22094 24.6767 1.2206 24.4199 1.22003C24.1432 1.21967 23.8665 1.22063 23.5898 1.22143C23.1102 1.22265 22.6305 1.22304 22.1508 1.22291C21.4569 1.22273 20.763 1.22394 20.0691 1.22553C18.9428 1.22808 17.8165 1.22972 16.6902 1.23069C16.589 1.23078 16.589 1.23078 16.4858 1.23087C16.2126 1.23111 15.9393 1.23134 15.666 1.23157C14.9141 1.23222 14.1621 1.23305 13.4102 1.23396C13.3429 1.23404 13.2756 1.23412 13.2062 1.23421C12.0844 1.23558 10.9625 1.23756 9.84068 1.2399C9.14842 1.24131 8.45616 1.24214 7.7639 1.24222C7.28963 1.2423 6.81536 1.2429 6.34109 1.24392C6.06731 1.24448 5.79354 1.24479 5.51975 1.24444C5.22315 1.24406 4.92655 1.24485 4.62995 1.24574C4.54314 1.24544 4.45634 1.24514 4.36691 1.24483C4.28749 1.24525 4.20808 1.24568 4.12627 1.24612C4.0578 1.24617 3.98933 1.24622 3.91878 1.24627C3.62369 1.27583 3.42057 1.35343 3.21049 1.56936C3.16955 1.94347 3.16955 1.94347 3.32958 2.26817C3.56294 2.44937 3.7034 2.44343 3.99445 2.4436C4.06823 2.44426 4.06823 2.44426 4.14351 2.44494C4.30908 2.44605 4.47457 2.44499 4.64015 2.44395C4.75974 2.4443 4.87934 2.44478 4.99893 2.44538C5.32816 2.44666 5.65737 2.44602 5.98659 2.44508C6.34142 2.4444 6.69624 2.44546 7.05107 2.44629C7.7464 2.44765 8.44173 2.44735 9.13706 2.44647C9.70202 2.44579 10.267 2.44569 10.8319 2.44602C10.9524 2.44609 10.9524 2.44609 11.0753 2.44616C11.2385 2.44626 11.4016 2.44636 11.5647 2.44646C13.0956 2.44733 14.6265 2.44633 16.1574 2.4447C17.4718 2.44334 18.7862 2.44357 20.1007 2.44498C21.626 2.4466 23.1512 2.44724 24.6765 2.44631C24.8391 2.44621 25.0016 2.44612 25.1642 2.44602C25.2442 2.44598 25.3242 2.44593 25.4066 2.44588C25.971 2.44562 26.5355 2.44606 27.1 2.44678C27.7876 2.44763 28.4752 2.4474 29.1629 2.44578C29.5139 2.44498 29.8649 2.44467 30.216 2.44567C30.5371 2.44658 30.8581 2.44609 31.1792 2.44446C31.2956 2.44412 31.412 2.4443 31.5285 2.44503C31.6862 2.44595 31.8439 2.44502 32.0017 2.4436C32.0894 2.44355 32.1772 2.4435 32.2677 2.44345C32.5363 2.39739 32.6241 2.32309 32.7856 2.10135C32.8225 1.84156 32.815 1.70116 32.6932 1.46962C32.4719 1.25021 32.2226 1.25587 31.9258 1.25339C31.8584 1.25261 31.7911 1.25183 31.7217 1.25102C31.6495 1.25047 31.5773 1.24991 31.503 1.24934C31.35 1.24721 31.1969 1.24503 31.0439 1.24281C30.8028 1.23967 30.5617 1.23686 30.3205 1.23487C30.0877 1.23278 29.855 1.22929 29.6222 1.22559C29.5499 1.22535 29.4775 1.2251 29.403 1.22484C29.3023 1.22295 29.3023 1.22295 29.1996 1.22103C29.1406 1.22041 29.0816 1.2198 29.0207 1.21917C28.8269 1.18161 28.7627 1.12218 28.6451 0.96138C28.5842 0.696621 28.5446 0.509129 28.6313 0.248899C28.7191 0.125402 28.7191 0.125402 28.8669 0.0494039C28.9914 0.0409876 29.1161 0.0373079 29.2408 0.0359521C29.3189 0.0349767 29.3969 0.0340012 29.4773 0.0329962C29.562 0.0324348 29.6467 0.0318734 29.734 0.031295C29.821 0.0306816 29.908 0.0300682 29.9976 0.0294361C30.1822 0.0283834 30.3668 0.0275689 30.5514 0.0269719C30.8328 0.025667 31.1142 0.0223328 31.3955 0.018975C31.5749 0.0182051 31.7543 0.017558 31.9336 0.0170454C32.0174 0.0157148 32.1013 0.0143842 32.1876 0.0130133C32.7239 0.0145147 33.1589 0.0738614 33.5632 0.460717C33.9784 0.940005 34.0138 1.42102 33.9967 2.0399C33.9472 2.55134 33.7577 2.96478 33.3864 3.31257C33.0151 3.56442 32.7143 3.71221 32.2681 3.69731C32.2634 3.76968 32.2634 3.76968 32.2587 3.84351C32.2037 4.60846 32.1009 5.36571 31.9997 6.12531C31.9796 6.27724 31.9596 6.42917 31.9395 6.58109C31.7559 7.96836 31.5675 9.35495 31.3779 10.7413C31.2509 11.6705 31.1253 12.5999 31.0033 13.5298C30.8965 14.3444 30.7869 15.1586 30.6741 15.9724C30.6147 16.4014 30.5566 16.8305 30.5018 17.2601C30.2729 19.0468 29.9943 20.6017 29.179 22.2065C28.8188 22.916 28.6781 23.5488 28.6142 24.3385C28.5999 24.4735 28.585 24.6085 28.5698 24.7435C28.5367 25.0391 28.5056 25.3349 28.4756 25.6309C28.3894 26.4569 28.2733 27.2791 28.1636 28.102C28.0968 28.6076 28.0321 29.1134 27.9674 29.6192C27.9411 29.8248 27.9148 30.0304 27.8885 30.236C27.8819 30.2871 27.8754 30.3382 27.8686 30.3908C27.8152 30.8074 27.7609 31.2239 27.7065 31.6403C27.6528 32.0519 27.5998 32.4635 27.5475 32.8752C27.5167 33.1169 27.4855 33.3586 27.4536 33.6002C27.3073 34.7114 27.2071 35.8046 27.2059 36.9272C27.1982 37.5405 27.1369 38.1304 26.7175 38.5997C26.6674 38.6325 26.6173 38.6653 26.5656 38.6992C26.5151 38.7337 26.4646 38.7683 26.4125 38.804C26.112 38.9852 25.8522 38.9717 25.5106 38.9716C25.4456 38.9719 25.3807 38.9721 25.3137 38.9724C25.0947 38.9733 24.8756 38.9736 24.6566 38.9739C24.5001 38.9743 24.3436 38.9748 24.187 38.9754C23.7608 38.9767 23.3346 38.9775 22.9084 38.9781C22.6422 38.9785 22.376 38.979 22.1099 38.9795C21.2775 38.9809 20.4451 38.982 19.6127 38.9826C18.6511 38.9834 17.6896 38.9854 16.7281 38.9884C15.9854 38.9907 15.2427 38.9918 14.4999 38.9921C14.0561 38.9923 13.6123 38.993 13.1685 38.9949C12.7509 38.9966 12.3334 38.997 11.9158 38.9962C11.7625 38.9961 11.6093 38.9966 11.4561 38.9977C11.2468 38.999 11.0375 38.9985 10.8282 38.9975C10.7374 38.9987 10.7374 38.9987 10.6448 39C10.1789 38.9946 9.87021 38.8653 9.51687 38.5403C9.23799 38.1747 9.10792 37.8833 9.10691 37.4184C9.10585 37.3385 9.10478 37.2585 9.10368 37.1762C9.10268 37.0888 9.10169 37.0015 9.10066 36.9115C9.06933 35.6049 8.90434 34.3225 8.73542 33.0285C8.69189 32.6935 8.64944 32.3584 8.60685 32.0232C8.53546 31.4627 8.46336 30.9023 8.39074 30.3419C8.29776 29.6243 8.20596 28.9065 8.11454 28.1887C8.03537 27.5672 7.95568 26.9457 7.87589 26.3243C7.85049 26.1262 7.82515 25.9281 7.79981 25.7301C7.75999 25.4191 7.71985 25.1081 7.67947 24.7971C7.66476 24.6836 7.65016 24.57 7.63566 24.4564C7.53336 23.3628 7.53336 23.3628 7.12077 22.3722C5.9485 20.39 5.82384 18.0463 5.54636 15.7924C5.47193 15.1891 5.39303 14.5864 5.31377 13.9838C5.18924 13.0365 5.06694 12.0889 4.94691 11.141C4.80572 10.0261 4.65887 8.91221 4.50469 7.79913C4.48626 7.66575 4.46783 7.53236 4.4494 7.39898C4.41567 7.1551 4.38186 6.91122 4.34802 6.66735C4.27563 6.14553 4.204 5.6236 4.13356 5.10149C4.11635 4.97712 4.11635 4.97712 4.09879 4.85024C4.04676 4.46178 4.01108 4.08946 4.0238 3.69731C3.97729 3.70084 3.93078 3.70436 3.88286 3.708C3.34737 3.73121 2.96735 3.65172 2.56555 3.27338C2.06165 2.70835 1.9842 2.21977 2.00235 1.46309C2.04304 1.01991 2.14655 0.747286 2.46678 0.446612C2.81783 0.163529 3.07441 0.0401282 3.5256 0.0389911ZM5.20681 3.69731C5.26413 4.4892 5.26413 4.4892 5.3537 5.27335C5.36066 5.32468 5.36761 5.376 5.37478 5.42888C5.39759 5.59669 5.42083 5.76443 5.44408 5.93218C5.46075 6.05412 5.47739 6.17607 5.49401 6.29801C5.5388 6.62601 5.58396 6.95396 5.62921 7.28189C5.67662 7.62593 5.72374 7.97002 5.7709 8.3141C5.85 8.89079 5.92934 9.46743 6.00883 10.0441C6.10077 10.711 6.1923 11.3781 6.28363 12.0452C6.37162 12.6878 6.45991 13.3305 6.54833 13.9731C6.58593 14.2463 6.62342 14.5196 6.66082 14.7929C6.70477 15.1139 6.74897 15.4349 6.79337 15.7558C6.80964 15.8737 6.82583 15.9917 6.84192 16.1096C6.86383 16.2701 6.88605 16.4306 6.90837 16.5911C6.92074 16.681 6.93312 16.7709 6.94587 16.8636C6.97063 17.0692 6.97063 17.0692 7.05526 17.225C9.87035 17.2267 12.6855 17.228 15.5005 17.2288C15.8325 17.2289 16.1645 17.229 16.4965 17.2291C16.5626 17.2292 16.6287 17.2292 16.6968 17.2292C17.7685 17.2295 18.8401 17.2301 19.9118 17.2308C21.0105 17.2315 22.1093 17.232 23.2081 17.2321C23.8867 17.2322 24.5652 17.2325 25.2438 17.2332C25.7085 17.2336 26.1731 17.2337 26.6378 17.2336C26.9063 17.2335 27.1748 17.2336 27.4433 17.234C27.7337 17.2345 28.0241 17.2343 28.3145 17.2341C28.4432 17.2344 28.4432 17.2344 28.5745 17.2348C28.6902 17.2345 28.6902 17.2345 28.8083 17.2343C28.909 17.2344 28.909 17.2344 29.0117 17.2344C29.1623 17.2422 29.1623 17.2422 29.2366 17.149C29.2665 16.9797 29.2919 16.8096 29.3157 16.6393C29.3233 16.5854 29.3309 16.5315 29.3387 16.476C29.3644 16.2941 29.3895 16.1121 29.4147 15.9301C29.4329 15.8001 29.4511 15.6702 29.4694 15.5403C29.519 15.1864 29.5682 14.8325 29.6174 14.4785C29.6688 14.1088 29.7205 13.7391 29.7722 13.3694C29.859 12.7483 29.9455 12.1272 30.0319 11.506C30.1319 10.7872 30.2322 10.0685 30.3327 9.34981C30.4292 8.65948 30.5256 7.96912 30.6218 7.27875C30.6628 6.98451 30.7039 6.69028 30.745 6.39605C30.7934 6.04963 30.8416 5.70318 30.8897 5.35672C30.9075 5.22935 30.9252 5.102 30.943 4.97465C30.9673 4.8012 30.9914 4.62772 31.0154 4.45423C31.0289 4.35702 31.0425 4.25982 31.0564 4.15966C31.0897 3.92697 31.0897 3.92697 31.0851 3.69731C22.5452 3.69731 14.0054 3.69731 5.20681 3.69731ZM7.20313 18.3649C7.24538 18.9783 7.24538 18.9783 7.35101 19.5809C14.4513 19.5809 21.5515 19.5809 28.8669 19.5809C29.0258 18.8242 29.0258 18.8242 29.0148 18.3649C21.817 18.3649 14.6191 18.3649 7.20313 18.3649ZM7.79464 20.7969C7.98983 21.2232 8.18503 21.6496 8.38614 22.0888C14.8032 22.0888 21.2203 22.0888 27.8318 22.0888C28.2365 21.4709 28.2365 21.4709 28.4233 20.7969C21.6158 20.7969 14.8084 20.7969 7.79464 20.7969ZM8.75583 23.3048C8.75583 23.693 8.76044 24.0248 8.80866 24.4017C8.82038 24.4947 8.83209 24.5877 8.84416 24.6835C8.8573 24.7848 8.87045 24.8861 8.88361 24.9874C8.89737 25.0954 8.91109 25.2034 8.92477 25.3115C8.96186 25.6034 8.99942 25.8953 9.03707 26.1871C9.07647 26.4931 9.11545 26.7992 9.15449 27.1052C9.22006 27.6188 9.28592 28.1324 9.35197 28.6459C9.4367 29.3047 9.52096 29.9635 9.60508 30.6224C9.6775 31.1897 9.75013 31.7569 9.8228 32.3241C9.84611 32.5061 9.86939 32.6881 9.89266 32.8701C9.92926 33.1561 9.96598 33.4421 10.0028 33.7281C10.0163 33.833 10.0297 33.9379 10.0431 34.0427C10.0614 34.186 10.0799 34.3293 10.0984 34.4726C10.1087 34.5527 10.119 34.6328 10.1296 34.7153C10.1583 34.9162 10.1938 35.1139 10.2346 35.3125C10.3281 35.3162 10.4216 35.3199 10.5179 35.3238C10.6407 35.3295 10.7634 35.3352 10.8862 35.341C10.9786 35.3445 10.9786 35.3445 11.0729 35.3481C11.1619 35.3525 11.1619 35.3525 11.2527 35.357C11.3073 35.3594 11.3619 35.3618 11.4181 35.3643C11.5655 35.3885 11.5655 35.3885 11.7873 35.5405C11.8491 35.8043 11.8876 35.9932 11.8011 36.253C11.7133 36.3765 11.7133 36.3765 11.5655 36.4525C11.3526 36.4702 11.141 36.4844 10.9278 36.4952C10.8685 36.4985 10.8092 36.5018 10.7481 36.5052C10.6016 36.5132 10.4551 36.5209 10.3085 36.5285C10.2985 36.7009 10.2914 36.8736 10.2854 37.0462C10.2811 37.1423 10.2768 37.2384 10.2724 37.3374C10.2811 37.5978 10.2811 37.5978 10.4575 37.7206C10.7377 37.8473 10.9873 37.8518 11.2877 37.8489C11.3488 37.8492 11.4099 37.8495 11.4728 37.8498C11.6774 37.8505 11.8819 37.8496 12.0865 37.8487C12.2332 37.8489 12.38 37.8492 12.5267 37.8496C12.9251 37.8503 13.3235 37.8496 13.7219 37.8486C14.1385 37.8477 14.5552 37.848 14.9719 37.8482C15.6716 37.8482 16.3713 37.8474 17.071 37.846C17.8803 37.8444 18.6897 37.8441 19.4991 37.8446C20.2772 37.845 21.0554 37.8446 21.8335 37.8437C22.1649 37.8434 22.4963 37.8433 22.8277 37.8435C23.2177 37.8436 23.6078 37.843 23.9978 37.8418C24.1411 37.8415 24.2844 37.8414 24.4277 37.8416C24.623 37.8419 24.8183 37.8412 25.0136 37.8402C25.0706 37.8405 25.1276 37.8408 25.1863 37.8411C25.4609 37.8388 25.681 37.8358 25.9094 37.6684C26.016 37.4492 25.9903 37.2567 25.988 37.013C25.9873 36.9226 25.9866 36.8323 25.986 36.7392C25.9851 36.6697 25.9842 36.6001 25.9834 36.5285C25.8923 36.5283 25.8923 36.5283 25.7994 36.5281C24.3234 36.5253 22.8474 36.5208 21.3713 36.5145C20.6575 36.5115 19.9437 36.509 19.23 36.5079C18.6079 36.5069 17.9858 36.5048 17.3638 36.5015C17.0343 36.4998 16.7049 36.4986 16.3754 36.4987C16.0654 36.4987 15.7555 36.4974 15.4455 36.4949C15.3316 36.4943 15.2178 36.4942 15.1039 36.4946C14.9486 36.4951 14.7933 36.4937 14.638 36.4919C14.551 36.4916 14.464 36.4914 14.3744 36.4911C14.1068 36.4444 14.0191 36.3691 13.8575 36.1485C13.8206 35.9205 13.8206 35.9205 13.8575 35.6925C14.0194 35.4711 14.1071 35.3965 14.3756 35.3499C14.4631 35.3496 14.5506 35.3493 14.6408 35.3491C14.7141 35.3482 14.7141 35.3482 14.7889 35.3473C14.9525 35.3458 15.116 35.3464 15.2796 35.347C15.3969 35.3463 15.5143 35.3455 15.6316 35.3446C15.9501 35.3425 16.2685 35.3423 16.587 35.3423C16.9199 35.3421 17.2527 35.3401 17.5856 35.3384C18.2159 35.3353 18.8461 35.3337 19.4764 35.3328C20.194 35.3315 20.9115 35.3286 21.6291 35.3256C23.1052 35.3193 24.5812 35.3152 26.0573 35.3125C26.2504 33.803 26.4432 32.2935 26.6357 30.784C26.7251 30.0831 26.8146 29.3822 26.9043 28.6814C26.9824 28.0705 27.0604 27.4597 27.1382 26.8488C27.1794 26.5253 27.2207 26.2018 27.2622 25.8784C27.3012 25.5739 27.3401 25.2695 27.3787 24.965C27.3929 24.8532 27.4072 24.7415 27.4216 24.6298C27.4413 24.4772 27.4606 24.3246 27.4799 24.1719C27.4908 24.0865 27.5017 24.0011 27.513 23.9131C27.5424 23.6601 27.5424 23.6601 27.536 23.3048C21.3386 23.3048 15.1411 23.3048 8.75583 23.3048Z" fill="currentColor"/>
</svg>
